<svg version="1.1" id="Layer_1" xmlns="http://www.w3.org/2000/svg" x="0" y="0" viewBox="0 0 1460 670" xml:space="preserve">
  <style>
    .st0{fill:#19b7aa}
  </style>
  <path class="st0" d="M310.5.6c0 .8.6 1.1 1.2 1.4 8.9 4.6 17.8 9.1 26.5 14 7.4 4.2 15.6 6.7 23 10.8 7 3.9 14.2 7.4 21.2 11.3 3 1.6 5.8 3.5 8.6 5.5 5.1 3.6 10.5 6.7 15.3 10.8 8.2 7.1 16.4 14.3 24.5 21.4 9.6 8.4 19.1 16.8 28.7 25.3 6.4 5.6 12.7 11.3 19.2 16.8 10 8.4 19.7 17 29.4 25.7 11.6 10.4 23.5 20.4 35.5 30.3 12 9.9 24.1 19.8 36 29.7 6.9 5.7 13.6 11.7 20.5 17.4 8.3 6.8 16.6 13.7 24.9 20.5 3.9 3.2 7.4 6.8 10.3 10.8 3 4.2 6.8 7.6 9.9 11.6 2.8 3.5 5.7 6.8 8.6 10.2 3.3 3.9 6.6 7.8 9.8 11.7.9 1.1 1.8 2.2 2.6 3.3 1 1.3 2.2 2 3.8 2 2.8.1 5.3-.3 7.7-2.1 4-2.9 8.1-5.6 12.3-8.1 3.2-1.9 5.9-4.4 8.6-6.9 1.8-1.7 3.1-3.7 3.7-6.2.4-1.9 1-3.8 1.6-5.7.4-1.3.1-2.2-.8-3-1.1-1.1-2.3-1.9-3.6-2.7-4.6-3-9.5-5.5-13.8-8.9-3.9-3-7.3-6.5-10.3-10.5-3.5-4.7-7.4-9.1-10.8-13.8-3.2-4.5-5.8-9.3-8.4-14.1-2.5-4.7-4.9-9.6-7.6-14.2-3.8-6.6-5.5-13.6-5-21.2.3-4.1.2-8.3.3-12.5.1-4.3-1.5-7.7-5.1-10.1-3.2-2.2-6.3-4.5-9.5-6.6-4.2-2.7-6.4-6.3-6.3-11.5.2-10.3 0-20.6-.1-30.9 0-2.8-.5-5.4-1.3-8.1-.4-1.4-1.2-2.4-2.7-3-9.5-3.6-18.9-7.5-28.5-11-4.3-1.6-7.5-4.2-10.5-7.4-4.8-5.3-9.7-10.5-14.6-15.8l-19.8-21c-3.8-4-7.6-7.9-11.3-11.9-6.2-6.8-11.4-14.3-17-21.6-.4-.5-.6-1.2-.8-1.8h1.7c.1 1 .7 1.7 1.3 2.5 1.7 2.2 3.3 4.4 5 6.5 4.3 5.6 8.6 11.2 13.5 16.3 4.2 4.4 8.4 8.7 12.5 13.1l17.4 18.6c4.7 5 9.5 10 14.1 15.1 2.4 2.7 5.1 4.7 8.5 5.9 3.5 1.3 7 2.7 10.6 4.1 5.3 2 10.6 4.1 15.8 6.1.4.2.9.4 1.3 0 .5-.6 0-1-.4-1.5-1-1.4-2.2-2.6-3.6-3.6l-5.7-4.2c-3.7-2.9-7.6-5.6-11.2-8.7-2.6-2.3-3.7-5.2-4-8.5-.1-1-.1-2.1-.1-3.1.1-17.8.1-35.5.2-53.3 0-1.8.3-3.6 0-5.4h1.7c-.1 1.8-.3 3.6-.3 5.4-.1 17.8-.1 35.7-.3 53.5-.1 5.4 1.9 9.4 6.3 12.5 4.2 2.9 8.1 6.1 12.3 9.1 2.1 1.5 3.9 3.2 5.6 5.2 2.8 3.4 5.4 6.9 5.9 11.4.5 4.1.8 8.3.5 12.4-.6 8.3.3 16.6 0 24.9 0 .3 0 .6.1.8.3 2.5 1.4 4.5 3.6 5.8 4.6 2.8 8.7 6.3 13 9.5 2.1 1.6 3.4 3.8 3.8 6.4.4 2.4.6 4.9.3 7.3-.7 4.5-.1 9 0 13.5.1 3.7 1.2 6.9 3.6 9.8 4.5 5.5 8.6 11.3 12.9 16.9l7.5 9.6c.7 1 1.4 1.1 2.4.5.5-.3 1-.6 1.4-1 4.7-4 9.6-7.9 14.2-12.1 1.9-1.7 3.8-3.7 6.8-3.6 2.6.1 2.7-.1 2.7-2.8v-13.3c0-15 0-30 .1-45 0-2.1-.3-4.1-1-6.1-1.4-3.9-2.3-8-2.3-12.2V99.3c0-3-.1-6 1-8.9.4-.9.3-2 .3-3.1.4-10.9.2-21.7.2-32.6 0-2.8 0-2.8-2.9-2.8-11.9.2-23.8-.1-35.7.2-2.4.1-4.4.7-6.2 2.3-1.2 1.1-2.6 2-4.2 2.1-2.6.1-5.3.1-7.9.1-.9 0-1.4-.4-1.5-1.3-.3-3.4-1.3-6.7-1.2-10.1.1-15.1.1-30.2.1-45.3h1.1c.4 1.2.2 2.4.2 3.7-.1 13.4-.1 26.8-.2 40.2 0 3.3.6 6.6 1.1 9.8.1.9.4 1.8 1.5 1.8 3.8.1 7.8.7 10.9-2.5 1.4-1.4 3.1-2 5.1-2 5.8-.1 11.7-.3 17.5-.3 5.8 0 11.5.1 17.3.1 5.7 0 5.1.2 5.1-5 0-15.3-.1-30.6-.1-45.8h1.1c0 .8.1 1.5.1 2.3.1 12.6.1 25.3.2 37.9V48c0 2.8.1 2.8 2.9 2.8 13.9-.1 27.7-.1 41.6-.2.8 0 1.7 0 2.5-.1.9 0 1.4-.5 1.4-1.4 0-.8.1-1.5.1-2.3 0-12.7.1-25.5.1-38.2 0-2.9.2-5.8.3-8.8h1.1l-.3 45.9c0 1 .1 2.1.1 3.1 0 1.2.6 1.7 1.8 1.7h1.4c19.1.1 38.1.2 57.2.3 21.1.1 42.3.1 63.4.1 32.5 0 64.9-.1 97.4-.1 5.7 0 11.3-.1 17-.1h1.1c1 0 1.6-.6 1.6-1.6v-2.5V3.8c0-1.3.1-2.6.1-4h1.1c0 1.3.1 2.6.1 4v44.8c.1 1.8.4 2 2.2 2.1h1.4c19.7-.1 39.5-.2 59.2-.4 4.7 0 9.4-.1 14.2-.2 2.3-.1 2.6-.3 2.6-2.4 0-8.1-.1-16.2-.1-24.4-.1-7.8-.1-15.7-.2-23.5h1.1c.1 3.5.3 7 .4 10.5.1 12.3.1 24.5.2 36.8 0 2.9.2 3.1 3 3.1 10.9.1 21.9.1 32.8.2 18.1.1 36.2.2 54.4.3 29.1.2 58.1.3 87.2.4 5.9 0 11.9-.2 17.8-.1 15.2.2 30.4.1 45.6.1 1.9 0 3.5-.4 5.1-1.3 4-2.3 8.1-4.5 12.1-6.8 8.4-4.7 16.9-9.3 25.2-14.1 13.1-7.5 26-15.3 39.2-22.7 2.7-1.5 4-3.3 3.5-6.3h1.1c.1.7.1 1.5.3 2.2.1.4.4.8.8.6 1.4-.8 3.4-.9 4.1-2.8h2.8c-1.1 1.7-2.9 2.4-4.6 3.2-2.5 1.1-3.4 2.8-3.3 5.5.1 12.2-.1 24.3-.2 36.5v5.1c0 1.1.5 1.8 1.7 1.8h43.6c6.1 0 12.3 0 18.4.1v1.7c-5.4-.2-10.7-.5-16.1-.5-14.8-.1-29.6 0-44.5 0-2.9 0-3.1 0-3.2 2.9-.3 8.5-.6 17-.7 25.5-.3 18.3-.2 36.6-.7 54.9-.2 8.6-.2 17.2-.3 25.8-.2 15.1-.4 30.2-.5 45.3 0 2.7.8 3.4 3.5 2.8 1.6-.3 3.2-.6 4.8-.1 2.4.8 5 1 7.5 1.4 4 .6 8.1.9 11.8 2.8.7.4 1.6.4 2.5.5 3 .1 6 .2 9.1.3 5.9.1 11.9-.1 17.8.4 3 .3 6 .4 9.1.1v1.1c-.9.1-1.9.2-2.8.2-11-.2-22-.5-33.1-.7-1.5 0-2.8-.4-4.1-1-2.1-1.1-4.4-1.5-6.8-1.9-2.8-.4-5.6-.7-8.4-1.3-2.8-.6-5.5-1.3-8.3-.1-.8.3-2.1-.7-2.3.7-.2 1.1 1.1 1.4 1.9 1.9.2.1.3.2.5.3 8.3 4.7 16.8 8.9 25.5 12.9 10.1 4.7 20.7 7.5 32 7.2 2-.1 4 0 5.9 0v1.1c-12.3.9-24-1-35.4-5.8-6.3-2.6-12.2-5.9-18.3-8.9-3.5-1.7-6.9-3.5-10.3-5.2-1.3-.7-1.7-.4-1.9 1v1.1c-.1 8.4-.3 16.8-.3 25.2V293c.1 2.1.4 2.4 2.6 2.4 11 .1 22.1.2 33.1.4 8.5.1 17 .2 25.5.2 1.7 0 3.4.3 5.1 0v1.7c-6.7-.4-13.4-.1-20.1-.2-14.3-.3-28.7-.5-43-.7-2.8 0-3.1.3-3.1 3.1-.1 11.2-.1 22.5-.2 33.7 0 2.6.2 2.8 2.7 2.8 12 .3 24 .3 36 .3 9.3 0 18.5.1 27.8.1v1.1c-21.1-.1-42.1-.1-63.2-.2-3.3 0-3.3 0-3.3 3.3v19.8c0 4.6-.1 9.3.4 13.9.3 2.2.4 2.3 2.6 2.4 10.4.1 20.7.2 31.1.3 6.7.1 13.4.3 20.1.3 4.1 0 8.1.2 12.2-.1v1.7c-.6-.1-1.1-.2-1.7-.2-13.2-.2-26.4-.3-39.6-.5-7.3-.1-14.5-.1-21.8-.2-2.8 0-2.9 0-2.8 2.8.2 5.7.7 11.5.8 17.2.3 16.3 1.5 32.6 1.5 48.9.2 36.2.1 72.5.1 108.7 0 20.3-.1 40.6-.1 60.9 0 3.1 0 3.1 3.2 3.1H1460.7v1.7c-6.1-.2-12.2-.4-18.3-.5-14.2-.1-28.5 0-42.7 0-2.3 0-2.3.1-2.5 2.3v1.1c-.1 5.4 0 10.7-.2 16.1-.4 9.9-.1 19.8-.2 29.7h-1.7c.1-2.2.3-4.3.3-6.5-.2-12.2.4-24.4.4-36.5 0-1.5.1-3 .1-4.5 0-1.1-.5-1.8-1.7-1.8h-26.6c-30.2 0-60.4-.1-90.7-.1-31.8 0-63.6 0-95.5-.3-10.7-.1-21.3.2-32-.2-2.1-.1-4.1-.2-6.2-.3-1.5 0-1.9.5-1.4 1.9.4 1.3 1.4 2.2 2.4 3.1 4.6 4.3 9.2 8.7 13.8 13 4.5 4.1 9.5 7.8 14.6 11.2 4.6 3.1 9.4 6 14.2 8.7 5.5 3.2 10.6 6.9 15.5 10.9.5.4 1.1.8 1.2 1.5h-2.3c-.3-1-1.2-1.4-1.9-2-5.6-5-12.1-8.7-18.5-12.4-7.3-4.3-14.4-9.1-21-14.4-6.4-5.2-12.1-11.1-17.9-16.9-.7-.7-1.2-1.4-1.6-2.3-1-2.4-1-2.4-3.6-2.4-16.7 0-33.4-.1-50.1-.1-10.7 0-21.3 1.3-31.9 2.2-1.5.1-1.9.8-1.9 2.2 0 2.8-.1 5.7-.1 8.5 0 12.6 0 25.1.1 37.7h-1.1c-.4-.6-.3-1.3-.3-1.9.1-12.1.1-24.2.2-36.2 0-2.6.1-5.3.1-7.9 0-1.8-.3-2.2-1.9-1.8-4.5.9-9 1-13.5 1.6-4.4.6-8.8 1.1-13.2 1.5-6.7.6-13.4 1-20 1.7-11.5 1.2-22.9 1.7-34.4-.6-7.7-1.5-15.4-3-22.7-6-3.6-1.5-7.2-3.3-11.3-3.6-4-.3-8.1-.9-12.1-1.3-3.1-.3-3.1-.2-3.2 2.9v26.3c0 5.9.1 11.7.2 17.6 0 2.4.3 2.6 2.6 2.6h8.5c4.6 0 4.6 0 4.4 4.8 0 .1-.1.2-.1.3h-1.1v-.8c-.1-2.7-.2-2.8-3-2.8H923c-4.6 0-4.6.6-4.7-4.6-.1-14.3-.1-28.5-.1-42.8 0-4.5.1-4.1-3.5-5.2-.6-.2-1.2-.5-1.8-.7-10.9-4.5-21.9-8.9-32.7-13.4-9.7-4.1-20-5.4-30.3-6.4-1.3-.1-1.7.4-1.3 1.8.3 1.1.7 2.2 1.5 3 1.5 1.9 1.9 4 1.9 6.4v10.8c0 18.3-.8 36.6-.5 54.9h-2.8c-.2-4.9-.5-9.8-.5-14.7 0-6.6.9-13.2 1.6-19.7 1.1-9.7.3-19.4.6-29.1 0-1.2-.2-2.2-.8-3.3-1.3-2.2-2.6-4.4-4-6.5-1-1.6-2.3-2.7-4.1-3.3-2.2-.8-4.4-1.7-6.7-2.3-6.7-1.9-13.1-4.9-19.3-8.1-1.1-.6-2.3-1-3.5-1.2-1.4-.3-2.8-.6-4.1-1.1-2.2-.8-2.7-.5-2.7 2 0 7.6 0 15.1.3 22.7.1 2.2.1 4.6 2.3 6.2.5.4.6 1 .6 1.5-.1 2.7-.1 5.3 1.4 7.7.2.4.2.9.3 1.4.5 3.6.9 7.1 1.4 10.7.1.7.1 1.4.6 1.9 1.2 1.4 1.4 3 1.6 4.7.2 1.9.7 3.7 1.4 5.5.8 2.1 1.1 4.2 1.1 6.4 0 1.3.1 2.6.1 4 0 1.5.5 2.8 2.2 3.3 1.1.4 1.7 1.2 1.8 2.3.2 3.1.9 6.2.8 9.3H820c-.3-2.6-.6-5.3-.9-7.9-.1-1.3-.6-2.4-2-2.8-1.4-.4-1.9-1.5-2-2.8-.1-1.2-.2-2.4-.2-3.7.1-3.1-.2-6.2-1.6-9.1-.6-1.2-.6-2.6-.8-3.9-.2-1.3-.1-2.7-1.2-3.7-.9-.8-.9-1.8-1-2.8-.6-4.9-.4-10-2.8-14.6-.3-.6-.3-1.3-.3-1.9-.1-2 .1-4-1.5-5.5-.3-.3-.3-1.1-.4-1.6-.8-3-.9-6.1-.9-9.3 0-6.2-.1-12.5-.1-18.7 0-3 0-3-3-3.8l-3-.9c-4.1-1.4-8.4-2.4-12.7-2.4-9.1 0-18.1-.4-27.2-.1-3.4.1-3.4.2-2.7 3.3 0 .2.1.4.1.5 2.4 12 5.7 23.8 8.9 35.7 1.7 6.2 3.4 12.4 5.6 18.4 4.3 11.6 9.5 22.8 14.4 34.1.4 1 1.1 2 .8 3.2h-1.1c-2.4-6.6-5.4-12.9-8.1-19.3-2.8-6.4-5.8-12.7-7.9-19.4-4.3-13.4-7.9-27-11.2-40.7-1.1-4.6-2.2-9.2-3.2-13.8-.3-1.3-.7-2-2.3-1.8-9.8 1.2-19.7 2.2-29.5 3.4-8.8 1-17.6 2.1-26.4 3.1-8.3.9-16.7 1.8-25.1 2.6-1.8.2-2 .4-2.1 2.3-.3 6.5-.7 13-.9 19.5-.5 16.8-.9 33.6-1.3 50.4-.1 3-.2 6-.3 9.1-.1 2.3.4 3.2-3 3.2-1.1 0-2.3 0-2.9 1.3h-2.8c1.1-1.7 2.9-2.4 4.7-2.8 2.5-.5 2.5-.5 2.7-3 0-.5.1-.9.1-1.4.4-12.7.7-25.5 1-38.2.2-7.4.3-14.7.5-22.1.1-2.5-.2-2.7-2.7-2.9-1.8-.1-3.6-.1-5.4-.1-3.6-.1-3.6-.1-3.7 3.4-.5 14.5-.5 29-.8 43.6-.1 7.8-.4 15.7-1 23.5h-1.1c.1-4.5.3-9 .4-13.6.3-12.4.5-24.9.8-37.3.1-5.8.3-11.7.4-17.5 0-2.1-.1-2.2-2.2-2.3-4.2 0-8.5-.1-12.7-.1-2.4 0-2.6.1-2.6 2.5-.4 18.2-.9 36.4-1.3 54.6 0 .9.1 1.9-.4 2.8-.9 1.6-.9 3.4-1 5.2 0 1.9-.1 3.8-.2 5.7h-1.1c-.1-3.3-.4-6.6.5-9.8.5-1.9.8-3.7.8-5.5.3-12.3.7-24.5 1-36.7.1-5.5.2-10.9.2-16.4 0-2.2-.1-2.3-2.2-2.3-3.1-.1-6.2-.1-9.3-.1-2 0-2.3.3-2.4 2.3-.1 2.3-.2 4.5-.3 6.8-.3 8.6-1 17.1-1 25.7 0 2.3.8 3.8 3 4.5 3.1 1 4.5 3.2 4.7 6.3.1 1.4.3 2.8.3 4.2.1 2.2 0 4.4.3 6.5.8 4.9 1 9.7.9 14.7H626c-.4-2.5-1-5-1.2-7.5-.6-7.5-4-14.1-6.3-21-.4-1.2-1.1-2.4-2-3.4-.4-.5-.9-1.1-1-1.7-.7-2.9-2.3-5.4-3.2-8.1-3.3-9.4-7.1-18.5-10.6-27.7-.6-1.6-1.5-2.2-3.1-2.2-4.7 0-9.4-.1-14.2-.2h-.3c-.6 0-1.2 0-1.3.7-.1.5.4.8.9 1 1 .4 1.9.8 2.9 1.1 3.9.9 6 3.6 7.4 7.1 1.8 4.5 3.7 8.9 5.3 13.4 2.2 6.1 1 14.5-6.8 18-2 .9-3.8 2.1-5.7 3.2-1.6.9-2.4 2.3-2.7 4.1-.5 2.9.9 4.9 3.1 6.5 3.9 2.8 5.5 6.8 5.8 11.5.1 1.8.1 3.6.2 5.4h-1.7c.4-3.7.3-7.3-1.2-10.8-1.2-2.8-3.6-4.5-5.8-6.4-.8-.7-1.8-.4-2.7 0-1.2.6-2.4 1.2-3.6 1.6-2.4.7-3.8-.5-3.2-2.9.4-1.5.7-2.9.7-4.4 0-1 .4-1.8 1-2.6 2.9-3.1 4.5-6.9 6-10.8 1-2.5 1.9-4.9 3.2-7.2.5-.8.8-1.7.9-2.7.1-1.3-.1-2.4-1.3-3.2-1.2-.8-2.8-.7-4 .1-.9.7-1.7 1.5-2.2 2.5-2.2 3.9-4.3 7.7-6 11.9-1.2 3.1-2.7 3.8-5.6 2.4-1.3-.6-1.7-.6-2.2.7-1.5 3.4-3.7 4.4-7.3 3.4-6.7-1.8-12.8-5-19-8-1.8-.9-3.3-2.2-4.6-3.7-1.8-2-4.1-3-6.8-3-4.1-.1-8.3-.3-12.4-.5-2.6-.1-2.7-.2-2.6-2.9.3-6.9.7-13.8 1.1-20.6.1-1.9.3-2 2.3-1.9 2.1.1 4.1.2 6.2.3 3.4.2 6.8 0 10-1.1 2.6-.9 5.4-1 8.1-.2 2 .6 4.1.6 6.2.2 2.8-.5 5.6-1 8.3-1.5 2.1-.4 3.9-1.4 5.3-3 3-3.3 6-6.5 9-9.8 1.6-1.8 3.9-1.8 6.2-.1 1.6 1.2 1.9 3.1.5 5-1.3 1.9-2.7 3.6-4.1 5.4-2.1 1.8-3.6 4.3-5.8 6.1-3.6 3-6.8 6.5-11.8 7.1-1.1.1-2.1.9-2.1 2.3 0 1 1.1 1.7 2.8 1.8.8 0 1.7 0 2.5-.1 3.3-.3 6.5-1 9.7-2 1.1-.3 2.1-.8 3-1.5 3.1-2.3 6-4.9 8.8-7.5.6-.6 1.2-1.2 1.6-1.9.8-1.4.3-2.1-1.2-2.3-1.6-.2-3.2-.2-4.8-.2-1.4 0-2.3-.5-2.8-1.9 2.4.7 4.9.4 7.3.6.6 0 1.1-.1 1.6-.6 3.1-2.8 4.1-7 2.6-11.2-2-5.5-4.1-10.9-6.2-16.4-.7-1.9-1.4-3.7-2.1-5.6-1.3-3.2-3.7-4.4-7-3.5-2.1.5-4.1 1.5-6 2.5-3.3 1.7-6.9 2.5-10.5 3.2-2 .3-4 0-5.8-.8-1.7-.8-2.5-2.7-2-4.5.2-.6.4-1 1-1.3.2-.1.3-.2.5-.2 6.9-1.5 11.7-6.4 17-10.4 1.4-1.1 2.8-2.2 4.2-3.4 1.3-1.2 2-2.7 2-4.5 0-2.1 0-4.1-.3-6.2-.4-2.6-.2-5.3.1-7.9.1-.9.6-1.5 1.3-2.1.9-.7 1.7-1.5 2.5-2.3 2-1.9 2.2-2.9.6-5.1-1.6-2.1-3.1-4.3-5.3-5.9-3-2.1-4.8-5.4-7.4-7.8-.6-.5-.8-1.3-.8-2.1-.1-2.9-.2-5.9 1-8.6 4.8-11.1 8.9-22.5 13.3-33.7 2.8-7.2 5.5-14.5 8.2-21.7 1-2.6 1.3-2.8 3.9-1.8 1 .4 1.9.8 2.9 1.1 1.8.6 2.2.4 3-1.4.2-.3.3-.7.4-1.1.9-2.6.7-3.1-1.8-4.1-7.1-2.7-14.3-5.4-21.5-8.1-8.6-3.3-17.3-6.6-25.9-9.9-10.4-4-20.8-7.9-31.2-11.9-3-1.1-5.9-2.5-9-3.4-.9-.3-2.1-.5-1.2-2.1.5-1-1.9-4.4-3.2-4.7-5.7-1.7-11.2-3.9-16.7-6.2-4.3-1.7-8.5-3.6-13-4.7-1-.3-2.3-1.2-3.2-.1-.8 1 .2 2.1.6 3.2 1.1 2.8 2.4 5.5 4 8.1.9 1.5 1.9 2.9 3.3 3.8 1.3.8 2 1.9 2.5 3.3 1.1 3.2 2.2 6.4 3.2 9.7.9 2.9.3 4.3-2.4 5.5-4.4 1.8-6.4 5.7-8.3 9.6-.6 1.2-.2 2 .9 2.5.8.4 1.5.7 2.3 1 3.7 1.3 4.5 4.2 3.3 7.5-2 5.7-4.3 11.3-6.4 16.9-2.9 7.7-5.7 15.4-8.6 23.1-1.8 4.8-3.7 9.5-5.5 14.3-.5 1.4-1.3 2.2-2.8 2.4-2 .3-3.5 1.3-4.8 2.7-1.8 2-4 3.1-6.7 3.3-3.8.4-7.7.9-11.5 1.5-2 .3-4 .1-5.9-.1-1.9-.2-3.3.3-4.3 2-.7 1.2-1.8 2-3 2.4-1.1.4-1.4 1.2-1.2 2.2.6 4.3.5 8.7 2.4 12.7.7 1.4.8 2.9.8 4.4 0 2.6 0 5.3.1 7.9.1 1.5-.4 2.3-1.8 3.1-3.9 2.3-7.8 3.7-12.4 3-1.3-.2-2.5.1-3.2 1.4-2.8 5-7.2 8.7-11.2 12.7-2.2 2.2-4.4 4.4-6.3 6.9-.4.5-.9 1-1.4 1.4-1.7 1.3-2.6 1-3.4-1-1.2-3.2-1.2-3.2-4.6-3.3-2.1 0-4.2-.1-6.2-.1-2-.1-3.8.5-5.1 1.9-1.7 1.8-3.6 2-5.9 1-1.7-.8-3.7-.9-5.6-.9-2 .1-3.4 1-3.9 3-.4 1.5-.9 3.1-1.4 4.6-.7 2.3-1.3 4.5-3 6.4-.9 1-.7 1.7.6 2.4 2.6 1.6 5 3.5 5 7 0 .7.3 1.4.8 1.7 1.5 1 1.6 2.6 1.9 4.2 1 6.2-.1 12-2.1 17.8-1 2.9-2 5.9-2.9 8.9-.2.6-.4 1.3-.4 1.9 0 1.9.9 3.2 2.8 3.3 2.7.2 3.8 1.9 5.1 3.8 3.2 4.9 2.9 10.4 3 15.9 0 1.4-.8 2.5-1.6 3.5-2 2.5-2.3 5.1-2.1 8.4.4 4.8 2.4 9.1 2.7 13.8.2 2.3 1.8 3.9 3.6 5.1.9.6 2 1.1 3 1.7.8.5 1.7.9 1.7 2.1h-1.7c-.4-1-1.3-1.3-2.2-1.7-3.8-1.7-5.9-4.6-6.1-8.8 0-.5 0-1-.2-1.4-1.6-3.9-1.6-8.1-2.4-12.1-.5-2.4.1-4.6 1.6-6.4 2.3-2.7 2.5-5.6 2.2-9-.3-4.1-1.1-7.8-3.2-11.3-.9-1.5-1.9-2.2-3.5-2.4-3.5-.5-4.9-2.7-3.8-6.2 1.4-4.5 2.8-9 4.3-13.5 1.7-4.7 1.1-9.5.8-14.3-1.7-2.3-2.4-5.1-3.6-7.7-.7-1.5-2.2-2.7-4-3.5-2-.9-2.2-2.1-.7-3.7 1.7-1.9 2.6-4.1 3.2-6.5.5-1.7 1-3.5 1.6-5.1.8-2.1 2.4-3.3 4.8-3.2 2.4.1 4.7 0 7 1 1.3.6 2.4.3 3.4-.7 2-2 4.4-2.7 7.2-2.5 2.5.1 5.1.1 7.6.2s2.7.3 3.2 2.7c.2.7.1 1.6 1 1.8.9.2 1.4-.5 1.9-1.1 4-5.3 9-9.6 13.6-14.4 1.4-1.4 2.5-3.1 3.5-4.8 1.2-2 2.8-2.7 5-2.4 3.9.6 7.4-.7 10.8-2.6 1.2-.7 1.7-1.7 1.6-3-.2-5 .1-10-2.1-14.7-.8-1.6-.7-3.5-.9-5.3-.1-1.6-.1-3.2-.5-4.8-.4-1.3.1-2.3 1.4-2.7 1.6-.5 2.8-1.5 3.7-2.9 1.1-1.7 2.7-2.3 4.7-2 3.1.5 6.2.2 9.2-.5 2.5-.6 5-.7 7.6-.8 2.5-.1 4.6-1 6.3-2.8 1.4-1.5 3-2.8 5.2-3.1 1.8-.3 2.5-1.9 3-3.4 2.5-6.8 5.1-13.6 7.6-20.4 3.8-10.1 7.6-20.1 11.4-30.2.3-.8.6-1.6.8-2.4.6-2.8 0-4.1-2.7-5.4-.9-.4-1.9-.8-2.8-1.3-1.6-.9-2-1.6-1.3-3.2 1.3-3.2 2.9-6.1 5.3-8.7 1.1-1.2 2.5-1.6 3.8-2.3 2.1-1.1 2.4-1.5 1.7-3.8-.9-3.2-1.9-6.3-3-9.5-.4-1.1-1-2.1-1.9-2.7-2.7-1.9-4.2-4.8-5.6-7.7-1-2.1-2-4.3-2.9-6.5-.8-2-2.1-3-4.3-3-1.2 0-2.4-.2-3.6-.4-3-.5-5.9.2-8.4 1.7-3.5 2.2-4.2 3.7-3.1 8.1.4 1.8 1.6 3.2 2.6 4.7 1.6 2.2 3.1 4.4 3.7 7.2 1 4.9.3 9.4-2.2 13.6-2.6 4.5-5.2 9-7.9 13.4-3.4 5.6-6.9 11-10.4 16.5-3.1 4.8-7.8 7.8-12.5 10.8-4.1 2.6-8.6 4.4-12.7 6.9-8.5 5.2-14.8 12.2-19.3 21-3.1 6-6.1 11.9-9 18-3.9 7.9-10.5 12.1-18.9 13.8-7.4 1.5-14.8 2.8-22.2 4.4-7.8 1.7-15.3 1.4-22.8-1.2-8.8-3.1-17.8-5.8-26.6-8.8-7.1-2.4-13.8-5.5-20.1-9.6-3.9-2.5-7.6-5.3-11.6-7.6-7.6-4.4-15.7-6.8-24.7-5.6-5.7.8-11.1 2.2-16.5 3.9-3.2 1-6.3 1.9-9.4 3-3.5 1.2-7.1 1.2-10.6 1.1-9.6-.3-19.2-1.3-28.8-1.7-8.7-.4-17.4-.4-26 .4-5.6.5-11.2 1.8-16.6 3.7-5.8 2-11.8 3.4-17.6 5.2-4.9 1.5-9.5 3.6-13.7 6.7-3.1 2.3-4.9 5.4-6.1 9-1.7 4.9-3.5 9.8-5.2 14.7-2.6 7.4-6.9 13.5-12.8 18.7-7.5 6.6-15.5 12.7-23.5 18.7-6.8 5.1-12.2 11.3-15.8 18.9-3 6.3-6 12.6-9.1 18.8-2.8 5.6-7.1 9.7-12.8 12.2-1.3.6-2.6 1.2-4.1.8V618c.8-.2 1.7-.2 2.5-.5 5.3-2.1 9.6-5.3 12.3-10.4 3-5.7 6-11.3 8.5-17.3 1.1-2.6 2.4-5.1 3.9-7.5 4.4-7.3 10.6-12.7 17.3-17.7 7.3-5.5 14.6-11.1 21.3-17.2 5-4.6 8.5-10.1 10.8-16.3 1.9-4.9 3.6-9.9 5.3-14.9 1.8-5.5 5.2-9.6 10.3-12.3 4.3-2.3 8.8-4.3 13.6-5.4 4.5-1.1 8.9-2.5 13.3-3.9 7-2.2 14.1-4.2 21.6-4.3 7.1-.1 14.2-.2 21.2-.2 1.7 0 2.9-.6 3.7-2.1.6-1.2 1.1-2.4 1.2-3.7 0-2.5-.3-2.9-2.7-2.7-11.3.7-22.6 2.1-33.5 5.5-12.6 3.9-25.1 8.1-37.6 12.4-4.2 1.4-8.2 3.3-12.4 4.8-10.7 3.9-21.5 7.8-32.2 11.6-6.4 2.2-12.9 4.2-19.6 5.3-4.7.8-9.5 1.5-14.3 2.1-4.8.7-9.5 1.9-14.3 1.5v-1.1c3.7.1 7.3-.7 11-1.2 11.3-1.6 22.7-3 33.5-6.8 7.4-2.6 14.8-5.2 22.1-7.9 10.5-3.8 20.8-8 31.3-11.5 11.4-3.8 22.8-7.9 34.5-11.2 6.9-1.9 14-3 21.1-3.9 3.5-.4 6.9-.8 10.4-1 1.4-.1 1.8-1.7 2.7-1.6 1 .1 1.6 1.5 3 1.3 1-.2 2.1-.1 3.1-.2 14.2-1.2 28.5-1.7 42.7-2.7 13.9-1 27.9-1.9 41.9-2.1 2.2 0 4.3 0 6.5.1 2.6 0 5.3-.2 7.9-.6 5.1-.9 10.2-.4 15.3-.3 3.7.1 7.3.5 11 .7 1.7.1 3.4.1 5.1-.1 2.1-.2 2.4-.6 2.4-2.6v-2.3c.1-4.5 1.2-8.6 4.2-12.1 1.8-2.1 2.5-4.3 1.6-7.1-.4-1.2-.5-2.6-.6-3.9-.1-1.6.2-3 1.6-4 1.5-1 2.9-.3 4.2.5 1.3.8 2.5 1.6 3.8 2.4.6.4 1.3.5 1.8-.1.5-.7.1-1.3-.5-1.7-2-1.3-3.3-3.3-4.7-5.2-.9-1.2-2.1-2.1-3.5-2.8-1.6-.8-3.2-1.6-4.8-2.5-.7-.4-1.5-.9-2.1-1.5-3.2-3.2-3.1-4.1 1.2-5.1 6.7-1.6 10.7-5.7 11-13.8.2-3.7.7-7.3 2.1-10.8 1.1-3 1-6.2 0-9.2-1.3-3.7-.7-6.8 1.9-9.7 1.2-1.4 2.2-3 3.3-4.6.5-.7 1-1.5 1.7-1.8 1.7-.8 2.9-2 3.9-3.5.5-.8 1.5-1.2 2.4-1.5 1.6-.5 2.7-1.6 3.6-3 2.3-3.4 4.7-6.6 6.9-10 1.6-2.5 3.7-4.2 6.2-5.6 3.3-1.8 6.6-3.6 9.8-5.6 3.4-2.1 6.6-1.2 9.7.3 2.3 1.1 2.1 4.3-.2 5.5-.9.5-1.9.7-2.9 1-2.2.6-3.9 1.8-5.3 3.5s-1.8 3.3-.9 5.4c1.3 3.1.5 4.6-2.7 5.9-1.8.7-3.3 1.7-3.9 3.8-.4 1.5-1.4 2.6-2.9 3.3-1.6.7-2.4 2.1-2.6 3.8-.1.6 0 1.2.5 1.5.6.3 1.2.2 1.5-.3 2.2-2.7 5.2-4.4 8.4-5.6.7-.3 1.2-.9 1.6-1.5 1.4-2.1 3.3-3.5 5.3-5 8-5.9 15.9-11.8 23.8-17.8.5-.4.9-1.2 1.6-.8.8.4.6 1.3.6 2 0 7.5-.2 14.9-.2 22.4 0 3.6.1 7.2.1 10.8 0 .8-.1 1.9 1.1 1.9 1 .1 1.8-.6 2.2-1.5.4-1 .3-2 .3-3.1 0-4.7-.1-9.4-.2-14.2-.1-3.4 1.1-6.7 1.5-10 .1-.7.4-1.3.9-1.7.8-.7 1.7-.8 2.6-.4.9.4 1.1 1.2 1.1 2.1 0 1.1-.6 1.9-1.1 2.9-.5 1-.6 1.9.6 2.3 1.1.4 1.5-.5 1.6-1.4l.6-4.2c.2-1.9.6-3.7 1.2-5.5.5-1.5 1.4-2.6 2.8-3.5 1.7-1 3.2-1.3 5 0 1.4 1.1 3.1 1.7 4.6 2.7 1.7 1.2 3.2 1 5 0 3.9-2.4 7.7-4.8 11-8 1.2-1.1 2.5-1.6 4.1-1.7 1.6-.1 2.2.5 2.3 2.1.1 1.9.1 3.8.2 5.7.1 2.5.3 2.7 2.8 2.8h15.3c7 0 14 .1 21 .1 1.5 0 2.6.2 2.9 1.9.2 1.1 1.2 1.4 2.1 1.7 8.4 3.2 16.8 6.4 25.2 9.5 1.9.7 2.4.6 3.5-1.1 1.8-2.6 3-5.4 4.1-8.4 1.5-3.9 2.8-7.8 4.4-11.6 1.1-2.7 1-5.5 1-8.4 0-1-.5-1.5-1.5-1.6-1.6-.1-3.2-.3-4.8-.4-14.6-.9-29.2-2.2-43.8-3-6.9-.4-13.7-1.4-20.5-2.8-7.4-1.5-14.7-3.2-21.8-6-2.4-.9-5-1-7.5-.9-6.3.3-12.6.5-19 .8-5.8.3-11.4 1.8-17.1 2.3-6.7.7-12.6 3.8-18.8 6-.9.3-1.7.8-2.6 1-1.7.5-2.8 1.5-3.5 3.1-.2.4-.4.8-.7 1.2-.5.9-1.2 1.6-2.3 1.3-1.2-.3-1.8-1.4-2-2.5-.1-.9.6-1.4 1.3-1.6 2.5-.7 4.7-2.1 7.1-2.9.9-.3 2.1-.5 2.4-1.4.8-2.4 3.1-2.8 4.7-4.2 2.9-2.4 6.1-4.1 9.1-6.2 1.5-1 3.1-1.8 4.9-2.2.7-.1 1.5-.3 2.1-.7 2.5-1.7 5.4-2.2 8.3-2.7 2.8-.5 5.5-1.3 7.7-3.2 1.4-1.1 3-2 4.5-2.9 1.1-.7 1.7-1.5 1.2-2.8-.6-1.6-1.5-2.3-2.9-2.2-.4 0-.8.1-1.1.2-1.6.5-2.8-.1-3.6-1.4-1-1.8-2.5-2.1-4.4-2.4-3.8-.6-7.5-.7-11.3-.7-1.7 0-3.4-.4-5-.9-1.6-.4-3-.1-4.3.8-1.4 1-2.8 2-4.3 2.7-2 1.1-2.9.7-4.2-1.2-.5-.7-.9-1.7-1.7-1.8-3.6-.6-6.1-3.8-9.7-4.2-1.8-.2-2.7-1.3-3.2-3.1-.8-3.1-4.5-5.9-7.7-6.1-1-.1-2.1 0-3.1 0-1.7 0-3.1-.7-4.5-1.6-1-.6-1.4-1.5-1.4-2.6 0-1.2.1-2.5 0-3.7-.1-1.5.6-2 2-1.9 2.1.1 4.2 0 6.2 0 2.1 0 2.2-.1 2.3-2.3.1-2.5 0-5.1.1-7.6.1-2.1.2-2.2 2.3-2.3h1.4c4.6-.4 8.1 1.3 10.7 5 .4.6.9 1.2 1.4 1.8 1.5 1.7 3 2.1 4.5 1.1 1.4-.9 1.8-2.6 1-4.5-.7-1.8-1.6-3.6-2.8-5.3-1.2-1.7-1.1-3.5-.2-5.4.9-1.8 3.5-2.8 5.3-2 .2.1.5.4.5.6.1.4-.3.7-.7.7h-1.1c-2.9.2-4 2-3 4.6.3.7.7 1.3 1 2 .8 1.6 1.7 3.2 2.4 4.8.9 2.2.1 4.5-1.5 5.6-1.8 1.1-4.3.9-6-.8-.9-.9-1.8-2-2.5-3.1-2.3-3.2-5.4-4.2-9.2-3.9-2 .2-2.2.3-2.2 2.4-.1 2.5-.1 5.1-.3 7.6-.1 1.9-.4 2.1-2.2 2.2-2 .1-4 0-5.9.1-1.8.1-2.1.4-2.2 2.2-.2 2.8 1.2 4.5 4 4.8.5 0 1 .1 1.4 0 3.4-.4 6.2.9 8.8 3.1 1.2 1 2.2 2.1 2.6 3.6.4 1.6 1.4 2.6 3.1 2.9 1.8.3 3.4.9 4.8 2.3.3.3.8.6 1.2.7 2.6.4 4.6 1.4 5.9 3.8.5.9 1.5.7 2.3.2 1-.7 2.1-1.3 3-2.1 1.7-1.5 3.7-1.9 5.8-1.4 3.5.7 7.1.9 10.7.9 2.5 0 5.1.5 7.6.9.9.1 1.8.6 2.4 1.4 1.1 1.9 2.4 2.5 4.7 2 2.4-.6 5.2 3 4.6 5.4-.2.8-.8 1.3-1.4 1.7-2.5 1.7-5.2 3-7.5 5.1-.7.6-1.7.7-2.7.9-4 .8-7.8 2-11.6 3.3-4.8 1.7-8.9 4.5-13.1 7.2-.9.6-1.8 1.3-2.4 2.2.6.7 1.2.3 1.6.1 3.7-1.7 7.6-2.6 11.6-3.3 10.7-1.8 21.6-2.4 32.4-3.1 5.7-.4 11.1 0 16.3 2.4 5.8 2.8 12.2 3.3 18.4 4.5 5.2 1 10.5 1.2 15.7 2.3 1.5.3 3 .4 4.5.5 7 .1 13.9 1 20.9 1.5 5.4.4 10.7.6 16.1.8 4.4.2 8.8.7 13.2 1.2 10.2 1.1 20.5 2.1 30.8 1.7 14-.5 27.9-.8 41.9-1.3 7.6-.3 15.3-.7 22.9-1.1 2.1-.1 2.4-.4 2.4-2.6-.1-4.2-.4-8.5-.6-12.7-.1-2.2-.1-4.3-.1-6.5 0-.7-.2-1.5.6-2.1.8.5.6 1.3.7 2 .5 5.9.4 11.9.7 17.8.2 4.2 0 4 4.6 3.7 1.2-.1 1.6-.8 1.6-1.9 0-2.5 0-4.9-.1-7.4-.3-9.2-.7-18.5-.8-27.7 0-4.9-.3-9.8-.1-14.7.1-2.8-.5-5.3-2.6-7.2-4.2-3.7-6-8.3-5.6-13.8.2-3.2-2.1-5.4-4-7.6-2.9-3.4-5.9-6.9-8.6-10.5-1.4-2-4.3-2.9-6.5-2.1-1.1.4-1.2 1.3-1.2 2.3.1 3 .3 6 .4 9.1 0 .7.1 1.3.1 2 .1 2.2 0 2.4-2.3 2.4-3.9.2-7.7.1-11.6.4-16.5 1-33 .5-49.6 1.4-14.9.8-29.8.3-44.7 1.1-13.1.7-26.2.5-39.4 1.1-8.6.4-17.2.4-25.8.6-3 .1-3 0-3.1-2.9-.2-10.5-.2-21-.6-31.4-.6-13.5-.7-27-1-40.5-.1-5 .3-5-5.1-4.8-8 .3-16 .7-24.1.6-2.4 0-2.6-.4-1.8-3.3 1.2 2.3 3.1 2.2 5.1 2.1l24.3-.9c2.7-.1 2.7 0 2.8 2.6.5 18.4 1 36.8 1.4 55.2.2 6.2.2 12.5.3 18.7 0 3.2.2 3.4 3.4 3.3 7-.2 14-.5 20.9-.7 7.6-.2 15.1-.2 22.7-.5 15.9-.5 31.7-.7 47.6-1.2 16.5-.6 33-.7 49.5-1.3 9-.3 17.9-.9 26.9-.9 2.6 0 2.6-.1 2.6-2.8l-.3-10.8c0-2.1.1-2.2 2.2-2.3 5.5-.4 5.5-.4 8.9 4 3 3.9 6.1 7.7 9.3 11.4 1.7 2 2.4 4.2 2.5 6.7 0 .9.1 1.9.1 2.8-.1 2.9 1.1 5.3 3.1 7.3 1.4 1.5 2.8 3.1 3.9 4.8.9 1.4 2 1.8 3.6 1.6.4-.1.8 0 1.1-.1 3.1-.5 5.7.5 7.9 2.7 2.5 2.5 6 3.6 9.1 5.1 1.8.9 2.9 1.8 3.3 3.8.4 2.4.7 2.5 3.2 2.5 2.3-.1 4.5-.1 6.8-.2 1.9-.1 2.2-.5 1.2-2-1.6-2.2-3.4-4.3-5.1-6.4-5.4-6.4-10.5-13.1-16.3-19.2-5.4-5.7-9.6-12.4-15.3-17.8-4.3-4.1-9.2-7.6-13.7-11.4-11.1-9.4-22.3-18.6-33.4-28.1-9.2-7.9-18.6-15.4-27.9-23.1-7.5-6.2-14.9-12.5-22.4-18.6-10.1-8.2-19.6-17.1-29.5-25.6-5.7-4.9-11.2-10.1-17-15-9.8-8.1-19.2-16.8-28.9-25.1-6.7-5.8-13.3-11.8-19.9-17.6-6.7-5.9-13.3-11.7-20-17.5-3.6-3.1-6.9-6.4-10.7-9.2-8.5-6.2-17-12.6-26.4-17.5-7.5-3.9-15.1-7.8-22.6-11.8-2.6-1.4-5.5-2-8.1-3.3-7.3-3.5-14.5-7.3-21.6-11.2-5.3-2.9-10.7-5.6-16.1-8.3-.9-.5-2-.7-2.4-1.8.6.4 1.7.4 2.8.4zm958.1 619.3v.3h35.4c9.9 0 19.8 0 29.7.1 19.7.2 39.5.1 59.2 0 3 0 3.1-.1 3.1-3 .1-9.1.2-18.1.2-27.2.1-11.7.2-23.4.1-35.1-.4-42.4 1-84.8-1-127.2-.3-5.9-.3-11.9-.6-17.8-.5-9.4-.7-18.9-1.1-28.3-.1-3-.4-3.2-3.3-3.2-9.8 0-19.6-.1-29.5-.1h-13c-1.9 0-2.1.2-2.1 2.1v1.1c0 8 .1 16.1.1 24.1 0 4.7 1 4.7-4.8 4.6-9.2-.1-18.3-.2-27.5-.3-1 0-2.1-.2-2.8.8-.8 1.2-2.1 1.2-3.3 1.2h-15.5c-1.3.1-1.9-.6-1.9-1.9v-4c-.1-2.7-.2-2.9-2.9-2.9h-37.7c-1.8 0-3.6.2-5.3.6-2.8.7-5.7 1.3-8.7 1.3l-40.5.3h-13.6c-1.3 0-2.7 0-3.8.8-2.1 1.4-4.4 1.6-6.8 1.6-23-.1-46.1-.1-69.1-.1-.8 0-1.7 0-2.5-.1-15.4-.3-30.8-.1-46.2-.1-2.2 0-2.5.4-2.5 2.5.4 11.7.1 23.4.3 35.1 0 2.8.2 5.7.4 8.5.2 2.9.6 3.2 3.5 3.2 24.1 0 48.2.1 72.2.2 2.6 0 5.3.1 7.9.3 3.9.2 4.5.8 5 4.6.1.7.1 1.3.1 2 .2 5.1.3 10.2.7 15.3 1 16.4 1.8 32.8 1.9 49.2 0 1.3.1 2.7.6 3.9.8 1.8.9 3.6.9 5.5v28.6c0 4.6-.1 9.2-1.6 13.7-1 3-1.1 6.1-1 9.2.1 7.6 0 15.3 0 22.9v4.8c.1 2 .2 2.1 2.1 2.2h1.7c15.4.5 30.8.2 46.2.4 25.7.5 51.5.3 77.3.3zM864.9 52.6h-115c-2.6 0-2.7.1-2.7 2.7-.1 2.9-.2 5.9-.2 8.8v54.7c0 11.3-.1 22.7-.1 34v25.5c0 2.5.7 4.4 2.8 5.8.4.3.7.6 1.1.9 2.7 2.1 4 4.9 3.9 8.4v42.8c0 2.7.1 2.8 2.6 2.8 8.4.1 16.8.1 25.2.2 2.4 0 2.4-.1 2.5-2.3.1-4.1.1-8.1.1-12.2V210c0-2.4.1-2.4 2.6-2.5H829.3c24.5 0 48.9.1 73.4.2h1.1c2-.1 2.3-.4 2.4-2.4.1-1.3 0-2.6 0-4 .1-2.1.4-2.4 2.4-2.9 1.9-.5 3.8-.4 5.6-.4H987c.9 0 1.4-.5 1.4-1.4v-2c-.1-19.2-.2-38.3-.2-57.5V60v-4.8c-.1-2.2-.3-2.4-2.5-2.4-5.8 0-11.5.1-17.3.1-18.9.1-37.8 0-56.7.2-14.6.1-29.3.1-46.8-.5zm529.3 80.9h.2c.2-13.5.5-27 .7-40.5.2-12.2.1-24.4.6-36.5.1-2.5 0-2.7-2.7-2.7-6.8 0-13.6 0-20.4-.1-7.7 0-15.5-.1-23.2-.2-11.1-.1-22.3-.2-33.4-.3-1.4 0-2.5.3-3.7 1-7.9 4.5-15.8 8.9-23.7 13.3-8.6 4.8-17.2 9.4-25.8 14.2-9.7 5.4-19.3 10.8-28.9 16.2-6.3 3.5-12.5 6.9-18.8 10.4-5.9 3.2-11.4 7-17.7 9.4-1.1.4-2 1-2.9 1.8-.8.8-1.8 1.4-2.8 1.9-6.2 3.4-12.4 6.9-18.5 10.4-5.6 3.1-10.9 6.8-16.7 9.6-10 4.9-20.1 9.7-30.1 14.5-3.7 1.8-7.5 3.2-10.9 5.5-6 4.1-12.2 7.9-18.3 11.9-7 4.5-13.9 9.1-21 13.5-1.4.9-2.1 1.9-2.1 3.4 0 1.8 0 3.6.1 5.4.1 2.6.2 2.7 2.8 2.7h16.2c8.3 0 16.6.2 24.9.1 1.9 0 2.9.7 3.7 2.4 1.7 3.7 3.7 7.2 5.5 10.9.8 1.5 1.8 2.2 3.6 2.2 10.1.1 20.2.3 30.3.4 18.2.1 36.5.1 54.7.1 20.6 0 41.2.1 61.8.5 1.9 0 3.4-.4 5-1.6 5.6-4.3 11.3-8.6 17.1-12.6 7.4-5.2 15.6-8.5 24.5-9.7 15.7-2.2 30.1 1.9 43.8 9.4 7.5 4.1 15.1 8.2 22.8 11.9 2.1 1 2.8 1.1 2.8-1.6 0-6.6.3-13.2.3-19.8.1-16.1.2-32.3.2-48.4v-9zm-342.5 427.3c.1-15.6-.3-35.8-.9-56-.4-14.7-.5-29.4-.8-44.2 0-2.2-.3-2.5-2.5-2.5-8.7.3-17.4-.2-26-.3-19.6-.1-39.3-.1-58.9-.1-26-.1-51.9-.1-77.9-.2-4.2 0-8.5.2-12.7-.9-.8-.2-1.7-.2-2.5-.2-18.3-.1-36.6-.1-54.9-.2-.8 0-1.5 0-2.3.1-1 .1-1.3.6-.8 1.5 1.4 2.3 2.7 4.8 4.8 6.6 1.4 1.2 2.5 2.6 3.6 4 5.5 6.7 10.9 13.5 16.5 20.1 1.8 2.1 2.7 4.1 2.2 6.9-.5 3 .5 4.3 3.6 4.4 2.5.1 4.3 1.1 5.8 3 5.4 6.7 10.8 13.3 16.3 20 3.4 4.2 6.7 8.4 10.1 12.5.9 1.1 1.9 2.1 3.5 2.2 2.4.2 2.5.3 2.5 2.6 0 3.6 0 7.2.1 10.8 0 2.4.3 2.6 2.6 2.6 10.1 0 20.2.1 30.3.1 5.1 0 5.8.8 5.8 6v43.6c0 3 .1 6 .2 9.1.1 2 .3 2.3 2.3 2.5 3.6.5 7.1.7 10.7 1.2 3 .4 6.1.5 8.8 1.8 9.5 4.3 19.4 6.7 29.6 8.4 2.1.4 4.3.9 6.4 1 8.2.1 16.4.5 24.6-.6 5-.7 10.1-1.1 15.2-1.5 10.9-.8 21.8-2.2 32.6-3.5 1.3-.2 1.9-.6 1.9-1.9V618c.2-17.5.2-35.1.2-57.2zm-2.1-192.9h.2c0 3.7.2 7.4 0 11-.4 6.4.2 12.8.2 19.3 0 1.9 0 3.8.1 5.7.1 2.1.4 2.4 2.5 2.4 1.8 0 3.6-.1 5.4-.1 25.9 0 51.7.1 77.6.2 7 0 14 .1 21 .1h15.3c1.2 0 2.6.2 3.6-.6 2.2-1.8 4.7-1.7 7.3-1.7 16-.1 31.9-.1 47.9-.2 4.1 0 8.1-.2 12.1-1.2 2.7-.7 5.4-.9 8.1-.9h27.5c3.5 0 7 0 10.5.1 2.4 0 2.5.2 2.5 2.6v3.7c.1 2.2.4 2.5 2.5 2.5h12.7c1.1 0 2.1-.1 2.7-1.2.6-1 1.5-1 2.4-.9 9.6.2 19.3.3 28.9.4 3.9 0 4 0 4-3.8 0-8.5.2-17-.2-25.5-.1-2.8.1-2.8 2.9-2.8 11.8.1 23.6.3 35.4.4h8.5c2.2 0 2.5-.4 2.3-2.5-.1-2.5-.4-5.1-.4-7.6-.1-8.4 0-16.8 0-25.2v-1.7c-.1-1.9-.2-2-2.2-2.1h-.8c-8.2-.1-16.4-.1-24.6-.2-7.4-.2-14.7-.6-22.1-.5-3.7 0-7.4-.1-11-.1-1.8 0-3.6-.2-5.2-1.1-2.4-1.4-5-1.6-7.6-1.7-8.3 0-16.6-.1-24.9-.2-3.4 0-6.7-.8-10.1-.6-9.3.5-18.7.7-28 .6-3.3 0-6.6.3-9.8 1.4-3.2 1.1-6.4 1.4-9.8 1.4-14.3-.1-28.5-.2-42.8-.1-25.8 0-51.6 0-77.3-.4-1.4 0-2.9 0-4.2-.6-4-1.8-8.3-1.6-12.5-1.6-4.2 0-8.2.7-12.1 2.5-4.6 2.2-9.2 1.9-13.6-.7-1.6-1-3.3-2-5.1-2.4-4-.8-7.7-2.4-11.7-3.2-1.8-.3-3.5-.6-5.3-.7-2.1-.2-2.3.1-2.4 2.1-.1 1.8-.2 3.6-.2 5.4-.2 9.9-.2 20.1-.2 30.3zm-71.2 39.6c18.4.2 33.4-.1 48.5.2 5.9.1 11.9 0 17.8-.1 3.4-.1 3.9-.6 3.8-4.1-.1-11.8-.3-23.6-.3-35.4 0-12 .1-24 .2-36 0-2.2-.2-2.4-2.4-2.4-4.6.2-9 1.1-13.3 2.6-8.7 3.2-17.6 4.7-26.9 4.7-35.6-.1-71.2-.1-106.8-.1-17.8 0-35.7-.1-53.5-.1-.8 0-1.7 0-2.5-.1-2.3-.1-2.4-.3-2.4-2.5 0-3.8 0-7.6-.1-11.3 0-2.3-.4-2.7-2.4-1.5-3.3 1.9-6.7 3.4-10 5.3-2.2 1.3-4.4 1.9-7 1.9-21.2-.1-42.3-.1-63.5-.1h-1.4c-1.3 0-1.9.6-1.9 1.9v2.3c0 15 0 30-.2 45-.1 6.1-.2 12.3-.2 18.4 0 2.3.2 2.5 2.4 2.4 16-.2 31.9.2 47.9.4 20.1.3 40.2.2 60.3.4h3.4c2.4 0 4.7.3 6.9 1.3 1.3.6 2.7.7 4.1.7 10.2.2 20.4.3 30.6.3h3.7c1.3 0 2 .5 2.2 2 .4 3.5.6 3.7 4.1 3.8 4.5.1 9.1.1 13.6.2 16.2.4 32.5-.5 45.3-.1zm274.5-112.3v.4h84.1c17.8.1 35.7.1 53.5.2 2.4 0 2.7-.2 2.7-2.5.2-20.1-.2-40.2.3-60.3.1-2.7-1.4-5.2-2-7.9-.1-.6-.8-1.1-1.2-1.5-.9-.8-1.8-1.7-2.8-2.4-.9-.7-1.8-1.5-1.8-2.7-.1-1.4-1-1.6-2.2-1.6h-77.3c-7.6 0-15.3-.3-22.9-.5-1.7 0-3.3.3-4.8 1.3-8.2 5.9-16.5 11.7-24.6 17.7-8.1 5.9-16.1 11.9-24.2 17.8-9.3 6.8-18 14.3-27.8 20.5-9.8 6.2-20.2 10.1-31.9 10.4-14.2.4-26.4-4.6-36.9-14-9.1-8.2-17.7-17-26.5-25.6-3.9-3.9-8.3-7.2-13.3-9.5-12.2-5.5-25-9.7-37.7-13.9-1.3-.4-2.5-.8-3.8-1.2-.8-.2-1.3.1-1.4.9-.1.6-.1 1.1-.1 1.7-.2 7.6-.4 15.1-.4 22.7-.1 9.2-.2 18.3-.2 27.5v13.9c0 5.7 3.5 9.1 9.1 9.2h2.3c14.9.1 29.8.1 44.8.2 1.8 0 3.6.1 5.3-.4 2.1-.7 4.3-.8 6.4-.8 14.5.1 29.1-.1 43.6.2 16.5.3 33 .2 49.6.3 14.2 0 28.2-.1 42.1-.1zm-64.5-242.4v-.1h-8.2c-36.2-.1-72.3-.3-108.5-.4-.8 0-1.5 0-2.3.1-2.1.2-2.3.4-2.3 2.3v2.5c0 8-.1 16.1-.1 24.1 0 2.3-.6 4.2-2.3 5.9-2 2-3.8 4.2-6 6-1.3 1-1.5 2.3-1.1 3.8.4 1.6 1.4 2.6 2.9 3.2 3.2 1.3 6.5 2.7 9.7 4 3.9 1.6 4 1.6 3.9 5.9v.3c-.1 23.5-.1 47-.2 70.5 0 1.1 0 2.3.1 3.4.2 1.9.7 2.2 2.3 1.2 1.8-1.2 3.5-2.5 5.4-3.7 8.7-5.6 17.3-11.1 26-16.6 3.1-2 5.9-4.4 9.2-6 9.9-4.8 19.9-9.6 29.8-14.4 6-2.9 12.1-5.7 17.8-9.3 8.6-5.3 17.5-10.1 26.3-15 2.1-1.2 3.5-3.1 5.9-3.9 5.5-1.8 10.2-5.3 15.3-7.9 7.2-3.8 14.1-7.9 21.2-11.9 11-6.1 22-12.1 32.9-18.2 11.4-6.3 22.8-12.7 34.1-19 2.4-1.3 4.8-2.7 7.1-4 .6-.4 1.6-.6 1.3-1.5-.3-.9-1.3-.6-2-.6-20.3.1-40.6-.2-60.9-.1-18.9-.1-38.1-.5-57.3-.6zM962.3 456.3v.2c19.7 0 39.5-.1 59.2 0 8.4 0 16.8.4 25.2.3 2.9 0 3-.1 2.9-3.1-.6-10.4-.2-20.8-.4-31.2 0-3.9-.1-7.7-.1-11.6 0-2.2-.3-2.5-2.5-2.1-1.6.2-3.2.2-4.8.2-20.5 0-41 0-61.5-.1-5.8 0-11.5-.4-17.3-.1-14.4.5-28.7.3-43.1.1-1.2 0-2.4-.2-3.6-.5-1.3-.3-2.1-1.1-2.2-2.5-.3-2.9-.4-2.9-3.2-2.9-9.9 0-19.8-.1-29.7-.1-2.8 0-5.5-.3-8-1.4-1.5-.6-3.1-.9-4.7-.9-37.2.2-74.4-.5-111.6-.6-2.7 0-3 .2-2.9 2.8.1 13.9-.5 27.8-.1 41.6.1 2.7.1 5.5-.8 8.1-.6 1.7-.3 2 1.5 2 2.3 0 4.5-.1 6.8-.1 15.8.1 31.5.4 47.3.4 20 .1 40 0 60.1.1 1.7 0 3.4 0 5.1.5 2.3.7 4.7.7 7 .7 27 .2 54.2.2 81.4.2zm90.6 77.2v82c0 1.4.1 2.8.1 4.2 0 1.2.6 1.7 1.8 1.6.8-.1 1.7-.2 2.5-.2 6.5-.6 13-1.2 19.5-1.6 10.3-.7 20.6-.2 30.9-.3 9.3 0 18.7.1 28 .1h2.5c1.3 0 1.9-.7 1.8-2v-2-28c0-3.1.4-6 1.4-8.9.8-2.4 1.2-4.8 1.2-7.2 0-10.8 0-21.5.1-32.3 0-2.2-.1-4.3-1-6.4-.5-1.2-.6-2.5-.7-3.9-.1-5.2-.5-10.4-.4-15.6.1-13-1.1-26-1.6-39-.1-4.1-.2-8.3-.8-12.4-.4-2.6-.7-2.9-3.4-3-1.8-.1-3.6-.1-5.4-.1-24.1-.1-48.2-.1-72.2-.1h-2.5c-2.9-.1-3 0-3 2.9.1 8.8.1 17.6.2 26.3.1 17.3 1.1 34.7 1 45.9zm-278.2-77.3v-.2h-32.1c-.5 0-1 0-1.1.6-.1.4.2.7.5.9 2.3 2.2 3.3 5 3.2 8.2-.1 4.8-.3 9.6-.3 14.4 0 6.6-.5 13.2.7 19.8.9 5 2.8 9.8 4.1 14.7.7 2.6 2.2 3.9 4.8 4.4 4.8.9 9.1 3 12.9 6.2 1.3 1.1 2 2.2 1.9 3.8 0 1.7 0 3.4.1 5.1.1 2.7.4 2.9 3 2.9h5.1c1.3 0 2.8 0 3.8.8 2.4 1.9 5.4 2.7 7.7 4.7 2.4 2.1 5 4 7.5 6 3.8 3.1 7.4 6.2 7.9 11.5.2 1.7.4 3.4.4 5.1.1 3.8.1 7.6.1 11.3 0 1.4.4 2.5 2 2.9 6.6 1.6 12.7 5 19.6 5.5.7.1 1.5.4 2.2.6 4.5 1.3 9.1 2.6 13.6 4 .6.2 1.4.4 1.8.8 1.8 1.8 4.1 2.1 6.5 2.4 5.8.8 11.6 1.4 17.4 2.6 8 1.7 15.4 5.1 22.9 8.1 7.9 3.1 15.7 6.5 23.6 9.7 3.3 1.3 3.6 1 3.6-2.4 0-16.7-.1-33.4-.1-50.1 0-.8 0-1.7-.1-2.5-.2-2.3-.7-2.8-2.9-2.9h-1.7l-31.2-.3c-2.9 0-2.9-.1-3-3.1 0-3.6-.1-7.2-.1-10.8 0-1.3-.3-2.3-1.9-2.2-1.6.1-2.6-.9-3.5-2-3.1-3.9-6.3-7.8-9.4-11.7-5.4-6.7-10.9-13.3-16.2-20-1.7-2.2-3.5-3.7-6.5-3.8-3.2-.1-5-2.5-4.3-5.6.6-2.7-.4-4.5-2-6.4-3.4-3.7-6.5-7.6-9.7-11.5-3.8-4.6-7.2-9.4-11.5-13.6-.9-.9-1.5-1.9-2.2-2.9-3.3-5.3-1.9-4.6-8.4-5.1h-1.7c-8.9.1-18 .1-27 .1zm586.2-120.3v.5l29.7.3c2.2 0 2.3-.2 2.4-2.5v-1.7c.1-9.5-.2-19.1.2-28.6.1-1.6 0-3.2 0-4.8 0-1.4-.6-2.1-2.1-2.1-2.4 0-4.7-.1-7.1-.1-41.4-.1-82.7 0-124.1-.3-19.8-.2-39.7 0-59.5-.2-27.7-.3-55.3-.2-83-.2-1.2 0-2.5-.1-3.7.2-3.8 1-7.7.8-11.5.8-15.6-.2-31.2.2-46.7-.4-.7 0-1.4-.1-1.8.5-1.7 2.7-3.9 5.1-4 8.6-.2 6.7.1 13.4 0 20.1 0 2.2.2 2.4 2.4 2.6 2.7.3 5.5.4 8.1 1.3 2.1.7 4.3 1.4 6.5 1.9 2.9.7 5.7 1.8 8.4 3.3 3.9 2.3 8.1 2.5 12.2.4 2.5-1.3 5.1-2.1 7.8-2.3 5.7-.4 11.5-1 17 1.3 1.3.6 2.7.6 4.2.7 8.4.5 16.8.3 25.2.3 32.1.2 64.2.2 96.3.2 2.6 0 5.1-.3 7.5-1.2 3.6-1.2 7.3-1.8 11.1-1.7 14 .2 27.9-.7 41.9 0 7.5.4 15.1.3 22.7.4 1.8 0 3.7.1 5.2 1.1 2.1 1.4 4.4 1.6 6.8 1.6h27.9zM989.5 129c-.1 6.5.2 16.9.3 27.4.1 12.7 0 25.5 0 38.2 0 3.2 0 3.2 3.4 3.2h.8c12.7 0 25.3.1 38 .1 1.8 0 3 .5 4 2 1.2 1.7 2.6 3.3 3.7 5 .8 1.2 1.7 1.3 2.8.7l1.5-.9c9-5.4 18-10.7 27-16 1.1-.7 1.7-1.4 1.7-2.7v-2.5c0-16.3.1-32.7.1-49 0-8.5 0-17-.1-25.5 0-2.6-.2-2.6-2.7-3.6-3.6-1.4-7.2-2.9-10.7-4.5-3.9-1.8-4.5-6.4-1.3-9.1 2-1.6 3.6-3.6 5.4-5.4 1.6-1.5 2.1-3.2 2.1-5.3 0-8.5.1-17 .2-25.5 0-3.4 0-3.4-3.5-3.4-3.9 0-7.7.2-11.6.2-19.4.1-38.7.1-58.1.2h-1.7c-.9.1-1.4.6-1.4 1.5v1.7c.1 23.1.1 46.1.1 73.2zm-235 162.8c0 4.5 0 9.1-.1 13.6-.1 6.3-.1 12.6-.1 19 0 2.5.2 2.7 2.8 2.7 18.5.1 37 .2 55.5.2 2.8 0 5.7 0 8.5.1 1.8 0 3.5-.3 5.2-1.2 7.7-4.1 15.5-8.3 23.2-12.4 6.5-3.5 12.9-7.1 19.5-10.3 7.7-3.8 15-8.3 22.5-12.4 4.5-2.4 8.8-5.1 13.3-7.5l28.5-15.6c11.6-6.4 23.2-13 34.9-19.4 10.7-5.8 21.2-12 31.7-18.1l20.4-11.7c2.7-1.5 5.4-3.1 7.9-5 1.2-.9 1.1-1.3-.2-2-.3-.2-.7-.3-1.1-.4-6.4-1.8-12.6-3.8-19.2-5-5.1-.9-10.1-1.2-15.2-.2-2.2.4-4.1 1.2-6 2.4-5.6 3.9-9.6 9.3-13 15.1-2.6 4.6-5.1 9.3-8.2 13.5-3.1 4.3-6.9 7.9-11.9 10.1-4.8 2.2-9.9 3.1-15.1 3.5-2.5.2-5.1.4-7.6.5-8.2.6-16.4 1.4-24.6 1.7-7.8.3-15.6 1.2-23.4 1.7-10.2.6-20.3 1.2-30.5 1.8-8.9.5-17.7 0-26.6-.3-5.3-.2-10.6 0-15.8.2-11.2.5-22.5.2-33.7.2h-19c-2.3 0-2.6.2-2.6 2.3v32.9zm-362.9 78v-11.4-3.7c0-1.1-.7-1.3-1.5-.9-.4.2-.8.5-1.2.8-5.9 4.8-12.3 9.1-18.3 13.8-2.6 2-5.7 3.5-7.6 6.3-1 1.6-2.5 2.6-4.2 3.3-2.3 1-4.4 2.1-6 4.1-.5.6-1.1 1-1.9 1.2-1.5.4-2.8-.4-2.8-1.9.1-2.4.4-4.8 2.9-6 1.5-.7 2.4-1.7 2.9-3.2.7-2 2.1-3.2 4.1-4 2.9-1.1 3.1-1.6 2-4.7-.5-1.3-.9-2.6-.1-3.8 1.7-2.9 3.6-5.6 7.2-6.3.9-.2 1.9-.3 2.7-.9 1.3-1 1.5-2.9.1-3.5-2.4-1-4.9-1.9-7.5-.3-3.5 2.2-7.1 4.2-10.8 6.2-2.3 1.2-3.9 2.9-5.3 5-2.4 3.6-4.7 7.3-7.4 10.7-.9 1.1-1.8 2.2-3.2 2.7-3.3 1.3-5.2 4.3-7.9 6.5-1.9 1.6-3 4.1-4.5 6.1-1 1.4-1.4 2.9-1 4.5.2.9.4 1.8.7 2.7 1 3.4 1.1 6.7-.3 10-1.2 2.8-1.6 5.8-1.8 8.8-.1 1.3-.1 2.6-.3 4-.7 5.8-4.6 10.3-10.3 11.8-.5.1-1.1.3-1.6.5-1.5.6-1.7 1.3-.6 2.5.7.8 1.5 1.4 2.5 1.9 1.7.9 3.3 1.8 5 2.6 1.5.7 2.7 1.7 3.6 3.1 1.1 1.8 2.5 3.3 4.2 4.5 1.4 1.1 1.7 2.6 1 3.7s-2 1.3-3.8.5c-1.3-.6-2.5-1.4-3.6-2.3-.9-.7-1.8-1.5-3.1-.7-1.2.7-1.1 1.9-1 3 .1 1.3.3 2.6.5 3.9.6 2.9 0 5.4-2 7.6-3.4 3.8-3.9 8.4-3.8 13.3.1 2 .4 2.3 2.4 2.2 4.2-.3 8.5-.5 12.7-.9 11.3-1 22.1-3.9 32.2-9.1 7.7-4 15.3-8.1 23-12.3 9.8-5.3 19.5-10.7 29.4-15.9 7.3-3.9 13.9-8.7 19.3-15.1 6.6-7.8 11.1-16.6 13-26.7.8-4.4 1.8-8.7 3.1-12.9 1.1-3.5 3.3-5.7 7-6.7 3.1-.8 6-.2 8.9.4 1.8.4 2.2 0 1.5-1.6-1.3-2.8-1.2-5.7-1.2-8.6v-6.2c0-4 0-4-4.2-4h-13.3c-1.4 0-2.1-.5-2.1-2 0-2-.2-4-.4-5.9-.1-.9.4-2-.8-2.5-1.2-.5-2.2.2-3.1.9-.4.3-.7.7-1 1-3.6 3.3-7.6 5.9-11.9 8.1-1.3.7-2.5.7-3.7-.1-1.7-1.1-3.4-2-5.1-3-2.5-1.5-4.7-.9-6.1 1.7-.7 1.3-1.1 2.8-1.2 4.3-.2 1.9-.3 3.8-.6 5.6-.4 2.9-2.2 3.8-4.8 2.3-1.9-1.1-2.3-.9-2.5 1.3-.1.8-.1 1.7-.1 2.5 0 4.8 0 9.6.1 14.4 0 1.2.1 2.5-.4 3.6-.5 1.2-3.2 3.1-4.3 2.8-1.7-.5-1.2-2.1-1.5-3.3-.1-.6-.1-1.3-.1-2-.6-4.2-.5-8.7-.2-14.3zm352.2 110.1v-7.1c0-2.4-.2-4.7 0-7.1.5-5.2-4.2-10-9.7-9.7-7.9.3-15.9 0-23.8.1-5.4 0-10.7-.9-15.9-2.6-4.4-1.4-8.7-3-13-4.8-10.5-4.3-21.4-7.3-31.6-12.2-3.2-1.5-6.7-2.4-10-3.9-2-.9-4-1.7-6-2.5-2.2-.9-2.8-.6-3.7 1.5-.8 2.1-1.6 4.2-2.4 6.4-.4 1.1-.9 2.3-1.2 3.5-.3 1 .1 1.7 1.1 1.9 4 .8 7.4 3.3 11.3 4.5 2.2.6 2.3 1.2 1.5 3.3-1.2 3.4-2.5 6.7-3.8 10.1-.8 2.2-.8 2.3 1 3.7 1.1.8 1.6 1.8 1.5 3.1 0 1.4-.5 2.6-1 3.8-2.2 5.7-4.7 11.3-6 17.4-.9 4.1-.8 8.2 0 12.4.1.8.3 1.5.9 2.1 1.5 1.6 3.3 3.1 4.4 5.1.3.6 1.1.7 1.8.8 4.8.7 9.1 2.9 13.6 4.6 1.7.6 1.8 1 1.1 2.8-1.2 3.3-2.5 6.5-3.6 9.8-1.2 3.6-1.1 7.1 1.3 10.2.5.7.8 1.5 1.2 2.3 3.5 7.2 5.3 15.1 8.9 22.3 1.2 2.5 1.2 2.6 3.9 1.6 4.8-1.9 9.3-4.6 14.6-5.4.9-.1 1.8-.7 2.5-1.3 6.8-6.3 13.5-12.6 20.3-18.9 6.1-5.6 12.2-11.3 18.3-16.9 1.3-1.2 2.8-1.8 4.6-1.9 3.3-.2 6.6-.4 9.9-.2 3.6.2 7.2.1 10.8.1 2.7 0 2.9-.4 2.1-3.1-1.8-5.9-4-11.6-4.7-17.8-.8-6.1-.2-12.1-.2-18zm353.4-280.3h-23c-3.1 0-3.2.2-3.2 3.2.1 5.2-.2 10.4-.5 15.6-.1 1.8-1.3 2.8-2.9 2.7-1.6-.1-2.4-.9-2.6-2.7-.1-.8 0-1.5-.1-2.3 0-.9-.5-1.5-1.4-1.5-3.7 0-7.4-.4-11-.2-1.1.1-1.8.6-1.8 1.7-.1 1.2.1 2.1 1.6 2.5 10.6 3.1 21 6.9 31.3 10.8 6.7 2.5 13.4 5.1 19.1 9.7 4.4 3.5 8.3 7.4 12.2 11.4 6.7 6.7 13.4 13.3 20.5 19.5 7.2 6.3 15.4 10.4 24.9 12.1 8.1 1.4 16 .7 23.8-1.5 7.1-2 13.6-5.6 19.7-9.7 12.5-8.5 24-18.3 36.3-27 6.8-4.8 13.3-10 20.1-14.7 5.3-3.6 10.5-7.4 15.7-11.2.5-.3 1.2-.6 1-1.2-.2-.8-1-.6-1.7-.6-5.2-.1-10.4-.3-15.6-.3-21.2-.2-42.5-.4-63.7-.5-21.8-.1-43.6-.2-65.4-.2-2 0-3.4-.7-4.2-2.5-1.8-3.7-3.8-7.4-5.6-11.1-.6-1.3-1.5-1.9-2.9-1.8-7.4.4-14.7-.4-20.6-.2zm-351.4-82.4h.1v-7.9c-.1-17.1-.3-34.2 0-51.3 0-1.2-.1-2.5 0-3.7.1-1.2-.5-1.8-1.6-1.7h-1.7c-13.8 0-27.6 0-41.4.1-3.7 0-3.7 0-3.7 3.8 0 9.8-.1 19.6-.2 29.5 0 1.6 0 3.3-.4 4.8-.9 3.6-.9 7.3-1 11v11.3c0 3.7 0 7.4 1.4 11.1 1.5 3.8 1.9 8.1 1.9 12.3v14.2c-.1 7.6-.4 15.1-.2 22.7.2 7.5.2 14.9-.1 22.4v1.7c0 1.2.6 1.7 1.8 1.7.9 0 1.9-.1 2.8 0 3.1.1 3.1.1 3.2 3.1 0 2.7.1 5.5.1 8.2.1 2.8.1 2.8 2.7 3.2 2.3.4 2.6.6 3 3 .1.6.2 1.3.2 2 .8 8.6 1.9 17.3 1.7 26-.1 2.2.3 2.4 2.5 2.4h12.2c1.5 0 2.8-.3 4-1.2 2.2-1.6 4.5-3.1 6.7-4.8 1.6-1.3 3.3-1.7 5.2-1.7 2.1 0 4.2-.1 6.2 0 1.4 0 1.9-.5 1.8-1.8v-2c0-13.4-.1-26.8.1-40.2.1-4.5-1.1-8-5.1-10.3-1.7-1-2.4-2.6-2.5-4.5-.1-1.1-.1-2.3 0-3.4 0-19.4.1-38.7.1-58.1.2-1 .2-1.4.2-1.9zm182.8 218.5v.1h77.9c7.2 0 14.3-1.1 21.2-3.2 5.8-1.8 11.6-4.1 17.8-4.1 2.9 0 2.9-.2 2.9-3.2 0-5.6.1-11.1 0-16.7 0-3.8.4-7.3 3.1-10.3 1-1.1.8-2.5-.1-3.4-.9-1-2.6-1.4-3.6-.6-3.2 2.6-6.9 2.6-10.8 2.6-45.8-.1-91.6-.2-137.3-.3-2.4 0-4.7 0-7.1-.1-1.1 0-2.3-.1-3.3-.8-1.4-1-2.6-.6-3.9.2-9 5.5-18.6 10-27.9 15-4.7 2.5-9.2 5.3-14 7.3-1.4.6-1.9 1.6-1.9 3.1.1 3.6 0 7.2.1 10.8.1 3.2.2 3.4 3.4 3.4 14 .1 27.9.1 41.9.1 13.8.1 27.7.1 41.6.1zm37.6-40.3c4.3 0 8.7.2 13 .2 19.7.1 39.5.1 59.2.2 3.8 0 7-1.3 10.1-3.2.8-.5.9-1.1.7-1.9-.4-1.4-.8-2.9-.8-4.4v-13.6c.1-17.1.2-34.2.7-51.2.1-2.3-.1-2.5-2.3-3.3-4.2-1.5-8.4-2.9-12.5-4.5-1.6-.6-2.9-.5-4.3.4-1.9 1.3-3.7 2.6-5.7 3.7-8.6 5-17.2 9.9-25.7 14.9-8.1 4.7-16.1 9.5-24.3 14-6.3 3.4-12.6 6.9-18.9 10.3-11.8 6.5-23.5 13.2-35.4 19.7-9.2 5-18.3 10.1-27.4 15.3-1 .6-2.8.8-2.3 2.3.4 1.3 2.1.8 3.3.9 9.2.1 18.3.2 27.5.2h45.1zm-148.7-42.5c-.9-.5-.7-1.3-.7-2v-7.1c0-3.4 0-3.4-3.5-3.4h-.3c-17.2 0-34.4 0-51.6-.1-1.6 0-3.2-.1-4.8-.1-1.8 0-2 .2-2 1.9-.1 3.4-.1 6.8-.1 10.2 0 2.9.2 3 3 3 5.4 0 10.8-.1 16.1 0 12.5.2 24.9.4 37.4-.3 3.5-.2 6.9-.6 10.4-.3 4.6.4 9.2.3 13.9.6 5.7.3 11.3.4 17 .1 9.9-.7 19.8-1.4 29.7-1.9 8.1-.4 16.2-1.2 24.3-1.6 9.6-.5 19.2-1.4 28.8-2 4.6-.3 9.2-.9 13.7-2.2 6.1-1.8 11.1-5.1 14.8-10.3 3.5-4.7 6.3-9.8 9.2-15 2.7-4.8 6-9.2 10.2-12.8 2-1.7 4-3.5 6.6-4.2 3.7-1 7.4-1.6 11.2-1.4 5.3.3 10.5 1.6 15.6 2.9 4.5 1.2 8.9 2.5 13.3 3.8 1.6.5 3.2.4 4.7-.4 1.2-.6 2.4-1.2 3.5-1.9 1.4-.9 1.5-1.6.6-3.1-.8-1.2-1.8-2.2-2.5-3.4-1.3-2.1-3.1-2.7-5.5-2.7-14.4.1-28.9-.1-43.3-.1H915c-1.4 0-2.8 0-4.2.1-2.5.2-2.9.7-3 3.1 0 1.1 0 2.3-.1 3.4-.2 2.5-.8 3.1-3.3 3.2h-1.7c-6.9-.3-13.8-.1-20.7-.2-2.7 0-2.8.2-3 2.9-.4 8.4-.2 16.8-.3 25.2v2.3c0 1.2-.6 1.7-1.8 1.7h-1.4c-16-.1-32.1-.2-48.1-.3-2.2 0-4.3-.3-6.5-.2-2.2 0-2.5.3-2.5 2.5-.1 2.5 0 4.9-.1 7.4-.3 1 .1 2-.8 2.7zm-91.6 201.2c4.9.1 10.4-.2 15.9.2 2 .1 4 .1 5.9 0 2.6-.2 3.9-1.4 4.4-4 .2-.8.2-1.7.3-2.5.4-3-.2-6-.2-9-.1-11.6.6-23.2.3-34.8 0-.8 0-1.5-.1-2.3-.1-1-.6-1.5-1.6-1.6h-1.7c-13 0-26.1-.2-39.1-.1-5.7.1-11.1-.8-16.3-2.8-5.4-2-10.7-4.2-16.2-6.1-6.1-2.1-11.9-4.8-17.3-8.2-2.2-1.4-2.6-1.3-3.7 1.4-1.9 4.9-3.8 9.9-5.6 14.8-1.1 3-1.1 3-4.2 1.7-.3-.1-.7-.3-1.1-.4-3.1-1.1-3.2-1.1-4.4 1.8-1.3 3.2-2.5 6.5-3.8 9.8-.8 1.9-1.1 2-3 1.3-2.8-1.1-5.6-2.2-8.5-3.2-3.4-1.3-6.9-2.6-10.3-3.9-2.3-.8-2.5-.7-3.4 1.4-1.3 3.1-2.5 6.3-3.7 9.5-.5 1.2 0 2 1.1 2.4 1.1.4 2.5.3 3.5 1 2.3 1.5 5.1 1.9 7.5 3.2 1.2.6 1.9.3 2.4-1 .9-2.5 1.9-4.9 2.9-7.4.2-.6.3-1.5 1.2-1.2.6.2.3 1 .1 1.5-.8 2.2-1.7 4.4-2.5 6.6-.8 2.3-.8 2.4 1.5 3.3 6.4 2.5 12.8 5.1 19.2 7.7 3.5 1.4 7.1 2.5 10.6 3.8l27 10.2c4.6 1.7 9.4 2.9 13.9 4.8 3 1.3 6.1 1.9 9.3 2 6.5.4 12.9.5 19.7.1zm26.7-90.9h.3v-17.8-15c0-.9-.1-1.8-1.2-1.8-2.4-.1-4.9-.3-7.3-.3-1.9 0-2.3.7-2.6 2.6 0 .4 0 .8-.1 1.1-.4 2.6-1 3.2-3.6 3.6-1.2.2-2.4.3-3.7.3-6.8-.1-13.6-.3-20.4-.5-12.8-.4-25.7-.8-38.5-1.1-4.9-.1-5-.1-4.2 4.7.6 3.5.1 6.7-1.2 9.9-1.9 4.9-4.2 9.7-5.3 14.9-.1.5-.5 1-.8 1.5-1.9 4.1-3.4 8.4-5 12.6-.5 1.4-.2 2.6 1.1 3.4 3.4 2 6.8 4.2 10.5 5.6 7.6 3.1 15.3 6 23 8.8 3.5 1.3 7.1 2.7 10.9 2.7 15 0 30 .1 45 .1 3 0 3 0 3-3 .1-10.7.1-21.5.1-32.3zm.3-71.5h.1v-16.1-16.7c0-2.1-.1-2.2-2.3-2.2h-7.6c-6 0-12.1 0-18.1-.2-3.7-.1-7.5-1.1-11.1.8-.3.2-.9 0-1.4-.1-.6-.1-1.1-.1-1.7.1-1.1.5-1.2 1.1-.2 2 1.4 1.2 3 2.4 3.4 4.4.5 2.3.3 4.7.3 7.1 0 .9-.5 1.4-1.4 1.5-.9.1-1.9.2-2.8.2-2.8 0-5.3.9-7.7 2.5l-24.6 16.2c-1.8 1.2-2.4 2.8-2.2 4.8.4 3.7.9 7.3 3 10.4.2.3.3.7.4 1 .4 1.4.1 2-1.3 2.3-1.4.3-2.8.3-4.2.3-3.4.2-3.6.3-3.6 3.6.1 5.6.3 11.1.5 16.7.1 2.2.5 2.6 2.7 2.7 2.6.2 5.3.3 7.9.3 17.4.5 34.7.9 52.1 1.4 1.6 0 3.2-.1 4.8-.3 1.3-.1 2.1-.8 2.1-2.2 0-.6.1-1.1.1-1.7.4-2.6 1.2-3.5 3.8-3.5 2 0 4 .2 5.9.2 2.5 0 2.8-.2 2.8-2.8.3-11 .3-21.9.3-32.7zm-310.6 97.4c-.9.8-.8 1.4-.9 1.9-1 6.3-2.8 12.3-5.6 18-6.1 12.4-15.5 21.7-27.8 28-3.4 1.8-6.8 3.6-10.2 5.5-7 3.8-14 7.7-21.1 11.5-5 2.7-10 5.3-15 8-6.5 3.5-13.1 6.7-20.2 8.8-9.2 2.8-18.6 3.9-28.2 4.2-3.4.1-6 .7-7.9 4-1.9 3.2-2.3 6.5-2.2 10 .1 2.4 2.2 3.5 4.5 3 .9-.2 1.8-.6 2.7-.8 1.4-.3 2.8-.1 3.9 1 3.3 3.6 2 9.2-2.6 10.9-1 .4-2 .7-3 .9-2.5.6-5 1-7.5 1.6-2.1.4-3.3 1.8-3.5 3.8-.1.7.3 1.1.8 1.3l2.4.9c4.2 1.4 8.5 2.6 12.6 4.1 6.5 2.3 13.1 2.6 19.8 1.1 2.8-.6 5.5-1.1 8.3-1.7 6-1.2 12.1-2.2 18-3.7 6.6-1.8 11.8-5.7 15-12 3.1-6.3 6.1-12.5 9.4-18.7 4.7-8.7 11.1-15.9 19.6-21.1 4.3-2.7 9.1-4.6 13.4-7.4 4.9-3.2 9.4-6.8 12.7-11.9 6.2-9.6 12-19.4 17.6-29.4 2.3-4 2.6-8.6.8-12.9-1.1-3-3.4-5.9-5.8-8.9zm309.2 159.1c-.2-8.7.3-17.4-1.2-26-.4-2.3-.4-2.5-2.8-2.5h-5.9c-4.8 0-9.6-.3-14.4 0-2.2.1-4 .8-5.6 2.3-5.9 5.5-11.9 11-17.9 16.5-6.5 6-13 12.1-19.4 18.2-1.2 1.1-2.5 2-4.1 2.3-5.2.9-9.7 3.7-14.5 5.5-1.2.4-1.5 1.3-1.2 2.5.1.4.3.9.5 1.3 1.8 4.1 2.7 8.4 3.2 12.9.3 2.6.3 2.7 2.9 2.4 5.1-.5 10.1-1.1 15.2-1.7 7.1-.8 14.3-1.5 21.4-2.3 9-1 18-2 27-3.2 5.1-.7 10.3-1 15.5-1.7 2.9-.4 3-.5 2.6-3.4-.3-2.5-1.1-5-1-7.6-.2-5.1-.3-10.3-.3-15.5zM828.1 239c17.8.5 31.5.6 45.3.5h1.4c1.9-.1 2.1-.3 2.3-2.1V236c0-8 .1-16 .1-24.1v-1.7c0-1.1-.6-1.7-1.8-1.7h-1.7c-12.9 0-25.9-.1-38.8-.1h-45.6c-2.5 0-2.9.4-2.9 2.7 0 8.1.3 16.2 0 24.3v2c0 .9.5 1.4 1.4 1.5.7.1 1.3.1 2 .1h38.3zm-582 237.5c-2.3.1-4.5.3-6.8.4-9.2.5-18.5 1.2-27.7 1.8-13.7.9-27.3 1.7-41 2.5-1.5.1-2 .7-2.1 2.1-.1 1.7-.3 3.4-1 5-.8 1.9-.6 2.1 1.3 2.3 9.2.8 18.4 1.8 27.7 1.5 1.3 0 2.6 0 3.9-.4 4.8-1.5 9.6-2.8 14.4-4.3 4.7-1.5 9.4-2.5 14.3-3.2 9.4-1.3 17.8 1.5 25.7 6.1 3.8 2.2 7.5 4.7 11.1 7.3.8.5 1.6 1 2.5 1.3 6.7 2.6 13.5 4.9 20.3 7.1 2 .6 3.9 1.4 5.9 2.1.9.3 2.1.7 2.5-.5.7-2.5 2.7-2.5 4.7-2.9 3.6-.7 7.3-1.2 10.6-2.9 2.5-1.3 3.1-3.7 1.7-6.8-.9-2-2-2.4-5-1.5-.4.1-.7.2-1.1.3-3.3.8-6.2-1.1-6.2-4.4 0-3.8.1-7.8 2.7-11 .4-.4.8-.9.6-1.5-.3-.8-1.1-.5-1.7-.5-3.9-.1-7.7-.1-11.6-.3-7.4-.4-14.9-1-22.3.3-1.4.2-2.8.2-4.2.2-6.3-.4-12.8-.2-19.2-.1zM530 335.9c-1.3 0-2.6-.2-4-.2-1.7-.1-2 .2-2.1 1.8-.1 1.3 0 2.6-.1 4-.2 1.7.4 2.7 2.2 3.4 6.8 2.5 13.5 5.2 20.3 7.8 9.4 3.6 18.8 7.2 28.3 10.8 2.3.9 2.6.8 3.6-1.6 1.3-3.2 2.4-6.3 3.6-9.5 1.1-2.9 1.3-2.9 4-1.9 9.8 3.7 19.5 7.5 29.3 11.2 2.7 1 2.7 1 3.8-1.7 2.9-7 5.1-14.2 8.4-21 .3-.6.4-1.2.6-1.9.3-1-.2-1.4-1.1-1.4-1 0-2.1.1-3.1.2-.7.1-1.3.2-1.9-.3-1.2-1.2-2.7-1-4.3-1-6.8 0-13.5 1-20.3 1.1-15.4.3-30.7.8-46.1 1.2-2.6.1-5.3.2-7.9 0-4.3-.4-8.7-.7-13.2-1zm-17.2 54.3c0-.1 0-.1 0 0 2.4 0 4.7 0 7.1-.1.8 0 1.6-.2 2.2.3 1.7 1.2 3.7 1.2 5.7 1.4 2.3.3 4.8.3 7 .9 2.9.8 6.1 1.7 6.5 5.6.2 1.6 1.2 2.4 2.7 2.9 3.8 1.4 7.7 1.8 11.7 1.8 4.3 0 8.7.4 13 .9 1.2.1 2.4.4 3.3 1.4 2.3 2.7 5.6 4.1 8.2 6.5.4.4 1 .6 1.6.6 4.8.2 9.5 1.6 14.1 2.7 1.9.5 2.4.3 3.1-1.5 1.4-3.6 2.6-7.3 4-10.9.4-1.2-.1-1.8-1.1-2.1-1.3-.5-2.7-.9-4-1.4-.8-.3-1.4-.7-1.4-1.6.1-2-1.2-2.1-2.6-2.1-.8 0-1.5-.1-2.3-.1-2.2 0-4-.8-5.4-2.6-1-1.4-2.5-1.9-4.2-1.9-1.6 0-3.3.1-4.7-.7-1.8-1-3.6-1.7-5.6-1.8-.9 0-1.5-.7-2.2-1.2-2.9-1.9-6.3-2.9-9-5.2-.4-.4-1.3-.4-1.9-.5-2.3-.4-4.7-.7-7-1.2-2.7-.6-5.6-1-7.6-3.3-2.1-2.4-4.7-3.7-7.8-4-1.7-.2-3.4-.2-5.1-.3-.9 0-1.7-.2-1.9-1.3-.3-1.5-1.4-1.6-2.6-1.7-3.8-.1-7.5-.6-11.3-1.2-2.3-.4-2.8-.2-3.8 1.9-2.9 5.6-4.9 11.7-7.2 17.5-.6 1.5-.3 1.8 1.3 1.9 2.2.4 4.7.4 7.2.4zm239.8 159.1c.4 6.3-.3 14.4 1.2 22.3.5 2.6.4 2.7 2.9 2.6 8.1-.3 16.2.1 24.3 0 5.3 0 10.6.4 15.6 2.2 1.6.5 3.2 1 4.9 1.4 1.6.4 1.9.2 1.9-1.4.1-1.7 0-3.4 0-5.1.1-1.4-.5-2.1-2-2-2.5.1-4.9.1-7.4.1-.7 0-1.3 0-2-.1-.4 0-.7-.3-.6-.8.1-.2.3-.5.6-.5.6-.1 1.1 0 1.7 0 2.5 0 5.1-.1 7.6-.1 1 0 1.9-.2 2-1.4.2-4.1-.6-8.1-2.4-11.8-.2-.5-.7-.9-1.1-1.2-3.8-3.1-7.5-6.3-11.3-9.4-1.5-1.2-2.9-2.8-5.1-2.8-.5 0-.9-.4-1.1-.8-1.2-1.8-3-2.1-5-2.1h-6.2c-2.9 0-2.9 0-2.9-2.8-.1-2-.2-4-.2-5.9 0-1.7-.8-2.7-2-3.8-3.6-3-7.8-4.6-12.2-5.6-2.2-.5-2.5-.3-2.2 2 .6 5.1 1.1 10.1 1 15.2v11.8zM620 560.5h-.2v6.8c.1 6.9.1 13.8.2 20.7 0 2 .5 2.3 2.5 1.8 1.7-.4 3.4-1 5.2-1.1 7.5-.5 14.9-2.3 22.5-2.6 2-.1 2.4-.5 2.2-2.4-.5-3.8-1-7.7-1.9-11.4-1.1-4.9-2.5-9.7-3.9-14.5-2.4-8.1-3.9-16.5-6.6-24.6-2.2-6.4-4-13-6-19.5-.4-1.2-.5-2.6-1.9-2.9-2.8-.7-4.1-2.5-4.2-5.3 0-.6-.2-1.1-.8-1.4-2.2-1.1-4.2.1-4.4 2.5-.6 9.2-1 18.5-1.8 27.7-.7 8.6-.6 17.4-.9 26.2zm736.9-508.2v.2h35.4c3.5 0 3.4 0 3.5-3.4.3-8.4.1-16.8.2-25.2.1-4.8.4-9.6.3-14.4-.1-2.4-.5-2.6-2.7-1.6-.5.2-1 .6-1.5.9-2.4 1.4-4.7 2.8-7.1 4.1-4.6 2.6-9.2 5.3-13.7 7.9-7.7 4.5-15.3 9-23 13.4-9.1 5.1-18.3 10.1-27.5 15.2-.6.3-1.2.6-1.7 1-.6.5-.4 1 .3 1.2.4.1.9.1 1.4.1 12.2.3 24.1.4 36.1.6zm-23.4 139.5c-10.9-.6-19.9 2.8-28.7 7.2-5.2 2.6-9.4 6.6-14.1 9.9-1.9 1.3-3.8 2.8-5.7 4.2-.4.3-1 .8-.8 1.4.2.7.9.6 1.4.6 1.5 0 3 .1 4.5.1 28.8.5 57.6.2 86.4.2h8.2c1.2 0 2 .4 2.2 1.7.5 2.8 2.8 4.2 4.8 5.7 1.1.9 1.7.5 1.9-.9.1-1.1 0-2.3.1-3.4.3-2.5-.8-4-3.1-5.1-8.5-4-16.7-8.8-25.2-13-5.8-2.9-11.7-5.7-18.1-7.1-4.8-1-9.7-1.5-13.8-1.5zm-685-2c-.1 1.3.5 2.2 1 3.1 1.3 2.1 2.3 4.3 3.5 6.5 3.4 6.2 6.4 12.6 10.1 18.7 4.2 6.9 9.5 12.9 14.5 19.2 3.7 4.7 8 8.8 13.1 12 4.7 3 9.8 5.3 13.9 9.2.3.3.6.5 1 .2.5-.3.6-.7.5-1.2-.2-.9-.7-1.8-1.2-2.6-.3-.5-.5-1.2.2-1.4 1.9-.7 2.4-2.5 3.4-4 .7-1.1 1.4-2 2.7-2.3 1.5-.3 1.9-1.3 1.8-2.7-.1-1.8-.1-3.6-.2-5.4-.1-4.1-.8-8.1-3.8-11.3-.6-.6-.9-1.4-1.5-2.1-1.5-1.8-2.1-3.9-2.1-6.3.1-4.4 0-4.4-4.2-5.1-3.1-.5-3.5-.9-3.6-3.9-.1-2.6 0-5.3-.1-7.9 0-2.3-.4-2.6-2.6-2.5-1.1 0-2.1.3-2.9.9-1.3 1-2.6 1.9-3.7 3-4.6 4.6-9.9 8.4-14.9 12.6-2.1 1.8-2.3 1.6-4-.5-6.5-8-12.5-16.3-18.8-24.5-.5-.5-.9-1.4-2.1-1.7zm-91.9 425.9c-1.1-.1-2.3 0-3.4-.2-2.7-.4-3.7-2.8-2.2-5 .7-1.1 1.8-1.6 3-1.9 2.2-.6 4.5-.9 6.2-2.5 3.6-3.5 7.4-6.7 10.5-10.6 1.1-1.4 2.3-2.8 3.3-4.2.7-1 1.1-2.1.3-3.2s-2.1-1.2-3.3-1.1c-.9.1-1.4.9-2 1.5-2.8 3.6-6.2 6.6-9.3 9.9-.8.9-1.7 1.5-2.9 1.7-5.1 1.2-10.3 2.6-15.6 2.2-.8-.1-1.8-.3-2.5.2-3 2.2-6.3 3.9-9.1 6.2-3.2 2.7-3 10.4 2.5 11.3.9.2 1.8.5 2.7.7 10 2.7 20.1 5.1 29.9 8.7 2.1.8 2.3 1 2.2 3.3-.1.9-.2 1.9.2 2.8.3.9.9 1.7 2 1.8 1.1.1 1.8-.5 2.2-1.4.7-1.5 1.3-2.9 1.9-4.4 1.6-3.7 3.6-7.3 6-10.5 1.6-2.1 3.5-2.4 5.8-1.4 2.2 1 3.1 2.8 2.6 5.4-.2.8-.5 1.6-.9 2.4-1.7 3.1-3 6.3-4.2 9.6-.9 2.4-1.9 4.9-3.6 6.7-2.5 2.5-2.5 5.6-3.1 8.6-.3 1.3.5 1.9 1.9 1.4 1-.3 1.9-.9 2.8-1.3 1.4-.5 1.9-1.3 1.6-2.8-.5-3.6 1.1-6.2 4.2-7.9 2-1.1 4-2.2 6-3.2 1.8-.9 3.1-2.2 4.1-3.8 2.1-3.6 2.5-7.6 1.1-11.5-1.6-4.5-3.6-8.9-5.3-13.4-1.4-3.9-4-6.2-8-7.2-1.7-.4-3.1-.4-4.3 1-2.2 2.5-4.9 4.4-7.4 6.6-1.3 1.1-2.6 2.3-4.2 2.8-3.8 1.2-7.6 2.8-11.7 2.7zm38.3-221.4c1.6.3 2.3-.3 2.9-1.5 1.2-2.4 1.9-4.9 2.9-7.4.5-1.3.1-2.2-1.2-2.7-.5-.2-1-.5-1.6-.7-9.2-3.2-18.1-7-27.3-10.3-11.7-4.3-23.2-9-34.9-13.3-4.5-1.7-9-3.4-13.5-5.2-1.3-.5-2.2-.3-2.7 1-1.3 3.5-2.7 6.8-4.3 10.1-1 2.2-.3 3.2 2.1 3.5 3.4.4 6.8.7 10.1 1 1.2.1 2.3.1 2.7 1.5.3 1 1.1 1.2 2 1.3.9.1 1.9.2 2.8.1 3.6-.2 6.6 1.5 8.9 3.7 2.4 2.3 5 3.3 7.9 3.9 2.6.5 5.2 1 7.8 1.3 1.4.2 2.5.8 3.5 1.7 2.5 2.4 6.1 2.7 8.9 4.8.3.2.7.1 1.1.2.7.2 1.6.2 2.2.6 2.2 1.4 4.8 1.7 7.3 1.9 1.7.1 3.1.7 4.2 2 .9 1.1 2 2 3.6 2.1 1.6.1 3.2.3 4.6.4zm-124.6-39.6c-2.6-.1-5.3 0-7.9-.1-2.1 0-2.3.1-2.3 2.2-.1 3.4 0 6.8-.1 10.2 0 2.2.5 4.3 1.2 6.3.7 2.1 2 3.2 4.1 3.8 3.3 1 6.8 1.7 10 3 4 1.7 8 3.4 12 4.9 3.8 1.4 7.6 2.8 11.5 4 2.8.8 3.1.6 4.2-2.1 2.3-5.5 4.2-11.1 6.8-16.5.8-1.7.6-2.1-1.3-2.8-8.7-3.3-17.3-6.8-26.2-9.8-.7-.2-1.5-.4-1.6-1.3-.2-1.7-1.4-1.7-2.7-1.7-2.6-.1-5.1-.1-7.7-.1zm141.3 172.4V522c.1-5.1-.1-10.2.2-15.3.1-1.9-.2-2.1-2.1-2.1-.6 0-1.1.1-1.7.1-6.3.6-12.6.5-18.9-.5-1.4-.2-1.9.3-1.9 1.6s-.3 2.7-.2 4c.2 2.2-.8 3.5-2.6 4.6-1.7 1-3.4 2.1-5 3.1-2 1.3-2.1 1.4-1.7 3.6.2.9.3 1.9.4 2.8 0 1.3.5 2.4 1.6 3.1 2.6 1.7 4.7 3.8 6.6 6.1 1 1.2 2.2 1.6 3.8 1.5 1.3-.1 2.6 0 4 .2 2.1.2 2.2.3 2.2 2.4 0 3.4-.1 6.8 0 10.2 0 1.9.3 2.1 2.2 2.1 3.6.1 7.2.1 10.8.1 2.8 0 2.8 0 2.9-2.8-.2-6.5-.5-13.1-.6-19.7zm-38.2-33c-3-.7-3.9-2.5-2.8-5.4 2.7-7.2 5.3-14.3 8-21.5 3-8 6.1-16.1 9.2-24.1 1.7-4.4 1.7-4.6-2.9-6.1-1.9-.6-2.2-.5-2.9 1.4-1.5 4-3 7.9-4.5 11.9-3.3 8.6-6.6 17.3-9.9 25.9-2.1 5.5-4.3 10.9-6.5 16.3-1 2.5-1.2 5.1-1.2 7.8 0 1.3.5 2.4 1.3 3.3 1.2 1.3 2.3 2.8 3.6 4 1.9 1.9 4 3.6 6.2 5.6.7-2.7.8-5.2 1.8-7.5 5.6-13.1 10.5-26.5 15.5-39.8 2.5-6.5 4.8-13.1 7.4-19.6 2.1-5.3 2.2-4.5-3.2-6.4-1.6-.6-2.1-.3-2.5 1.2-.7 2.4-1.8 4.6-2.7 6.9-3.1 8.2-6.3 16.4-9.4 24.6-2 5.3-3.9 10.6-5.9 15.9-.7 1.7-.6 3.1.9 4.3.4.4.6.6.5 1.3zm11.8 54.6v-8.8c0-4-.6-4.6-4.5-4.8-2.1-.1-4.2-.2-6.2-.3-5.2-.3-5.3-.6-5.1 4.8.1 3.3-1.2 5.9-3.8 7.8-1.1.8-2 1.7-3.1 2.4-5.1 3.6-9.5 8.5-16 9.9-.2 0-.4.1-.5.2-1.7.9-1.8 2.5-.2 3.6 1 .8 2.3.9 3.5.8 4.3-.1 8.3-1.5 12.2-3.4 2.4-1.2 4.8-2.3 7.5-2.4 3.3-.2 5.6 1.2 6.8 4.3 2.9 7.5 5.7 15 8.6 22.5 1.2 3.2 1.2 6.3-.8 9.2-.3.4-.5.8-.7 1.2-.7 1.4-.5 1.7.9 1.8 1.7.1 3.4.1 5.1.1 2.9 0 5.9.1 8.8.1 1.9 0 2.2-.4 1.5-2.2-.4-1.1-.9-2.1-1.3-3.1-3.7-9.4-7.3-18.8-11-28.2-.9-2.2-1.4-4.5-1.6-6.9-.3-2.7 0-5.7-.1-8.6zm24.1-186.4c.1-1.5-1.1-1.8-2-2.1-7.1-2.7-14.3-5.5-21.4-8.1-1.9-.7-2.5-.4-3.2 1.5-1.3 3.4-2.5 6.7-3.8 10-.9 2.3-1.2 2.4-3.6 1.5-12.7-4.8-25.4-9.7-38-14.6-4-1.5-7.9-3-11.9-4.5-.9-.3-1.9-.9-2.6 0-1 1.3-1.4 2.9-1.8 4.4-.1.4.3.9.7 1.1l1.8.9c8.4 3.2 16.7 6.4 25.1 9.6 16.8 6.4 33.6 12.8 50.5 19.3 2.5 1 2.8.9 3.8-1.6 2.1-5.4 4.1-10.8 6.1-16.1.1-.5.2-1 .3-1.3zm22 84.9c0-.9-.4-1.3-.9-1.5-3.6-1.3-7.2-2.7-10.9-4-1.2-.5-2 0-2.5 1.2-.4 1.1-.8 2.3-1.2 3.5-.6 1.8-1.2 2.1-2.9 1.4-2.5-.9-4.9-1.9-7.4-2.9-2.4-.9-2.4-.9-4.2 1.2-.1.1-.2.3-.4.4-2.7.7-3.3 3.2-4.1 5.4-1.4 3.7-3.4 7.2-3.7 11.2-.2 2.5-.2 5.1-1.1 7.5-.4 1.2-.2 2 1.1 2.4 3.6 1.1 7 2.8 10.6 3.9 3.7 1.1 7.3 2.5 10.9 4 1.4.6 2 .4 2.7-.9 1.4-2.7 2.9-5.3 3.9-8.1 1.2-3.3 2-6.7 3.7-9.7 2.5-4.3 3.8-9 5.9-13.5.2-.6.3-1.2.5-1.5zm-19.7 122.2v-14.7c0-3.2-.1-3.4-3.3-3.5-3.9-.1-7.7-.4-11.6-.3-1.9 0-2-.2-2.1-2.1v-7.6c0-5.4-.1-5.4-5.5-5-1.8.1-2.1.3-2 2.2l.3 15.3c0 1.6 0 3.2.1 4.8.1 1.3.7 2.4 2 2.7 4 .9 5 4 5.4 7.4.4 3.4.7 6.7 1 10.1.1 1.2.4 2.2 1.1 3.2 1.6 2.3 3.1 4.7 5.6 6.2 1.2.7 1.9 1.8 1.9 3.2l.3 4.8c0 1.3.7 1.9 1.9 1.9 3.3 0 6.6.1 9.9.2.6 0 1.2 0 1.5-.5.9-1.1.1-4.3-1.3-4.7-2.2-.6-3.6-2-4.5-3.9-.7-1.6-1-3.2-1-5 .3-4.9.3-9.8.3-14.7zM537 602.1c-.9-.9-1.5-.6-2.1-.4-1.4.3-2.7.8-4.1 1.1-4.3 1-8.6.9-12.9.4-2.5-.2-3.1.2-3.2 2.7-.3 5.7-.6 11.5-.8 17.2-.1 2.3.2 2.6 2.5 2.8 3.4.2 6.8.4 10.2.4 3.7 0 6.8 1.2 9.3 4 1.8 2 4.1 3.3 6.5 4.3 1.3.5 2.6 1.2 3.8 1.8 4.1 2 8.2 3.9 12.7 4.8 2.5.5 4.1-.3 4.9-2.3 1-2.5 0-4.8-.7-7.2-.5-1.8-2.1-2.3-3.6-2.8-7.6-2.2-15.2-4.5-22.9-6.3-2.2-.5-4.4-1.1-6.5-1.9-1.6-.6-2.6-1.7-3.1-3.4-1.4-4.8-.4-8 3.6-10.9 2-1.4 4.1-2.7 6.4-4.3zm63.9-98.3c2.7-.1 5.7-.3 8.7-.4 2-.1 2.3-.3 2.3-2.4.1-3.4 1-6.5 2.2-9.6.7-1.8 1.3-3.7 1.9-5.6.5-1.8.2-2.3-1.5-3.1-1.1-.5-2.3-.8-3.5-1.3-5.7-2.4-11.7-4.2-17.4-6.8-2.5-1.1-3.2-.7-3.6 2-.4 2.8-.9 5.6-1 8.4-.2 4-.1 7.9-1.3 11.8-.2.7-.2 1.5-.2 2.2-.1 3.3.5 4.1 3.7 4.3 3.1.2 6.2.3 9.7.5zm48.2-126.2c.1-1.4-.7-1.8-1.6-2.1-2.5-1-4.9-1.9-7.4-2.8-3.4-1.3-6.9-2.6-10.3-3.8-2.1-.7-2.5-.5-3.2 1.5-2.1 5.4-4.2 10.9-6.3 16.4-.8 2.1-.6 2.5 1.4 3.2 5.9 2.3 11.8 4.5 17.7 6.8 2 .8 2.4.5 3.1-1.5 2-5.4 4.1-10.7 6.1-16.1.2-.6.4-1.1.5-1.6zm1.3-43.6v.5h-9.1c-1.1 0-2.1.1-2.5 1.4-1.4 4.7-2.8 9.4-4.7 13.9-.5 1.2-.2 2.1 1.2 2.6 6 2.2 12 4.6 18 6.9 2.1.8 2.4.6 3.2-1.4 1.4-3.4 2.4-7 3.9-10.3 1.8-3.9 2.2-7.7.9-11.8-.4-1.3-.8-1.9-2.3-1.9-2.7.2-5.6.1-8.6.1zm16.2 247.2c-.2-4.8-1.7-9.3-3.5-13.6-.3-.7-.8-1.3-1.6-1.5-3.3-1.2-4.7-3.9-5.7-7-1.6-4.7-3-9.5-4.9-14.2-1.9-4.8-3.6-9.8-7-13.8-2.1-2.5-3.5-5.4-4.5-8.5-1-3.2-2.1-6.3-2.6-9.6-.1-.5-.2-.9-.4-1.4-.3-.5-.7-1-1.3-.7-.5.2-.4.8-.2 1.3 1 3.2 2 6.3 2.9 9.5 1.7 6.1 4.1 12 5.6 18.1 1.4 5.7 2.9 11.3 4.3 17 2.1 8.6 5.1 17 5.8 25.9 0 .3.1.6.1.8.1 1.5.9 1.9 2.3 1.8 2.5-.3 5.1-.4 7.6-.7 2.9-.3 3.2-.8 3.1-3.4zm-16.8-248.7v-.3h8.8c2.4 0 2.5-.2 2.6-2.6v-.8c-.1-5.5-.3-10.9-.5-16.4-.1-2.2-.2-2.4-2.5-2.3-4.3.1-8.7.3-13 .5-1.6.1-3.2.1-4.8.1-1.2 0-1.8.5-1.8 1.7v3.7c.1 4.8.3 9.6.4 14.4.1 2 .2 2.2 2.3 2.2 2.8-.2 5.6-.2 8.5-.2zm3.6-23.3v-.6h12.7c2.3 0 2.6-.3 2.7-2.7 0-2.8.5-5.4 1.3-8.1.7-2.6-.4-4.2-3-4.5-5.3-.6-10.7 0-16 .2-3.5.2-6.8 1.2-10.4 1.1-1.9 0-2.3.5-2.3 2.4 0 3.3.1 6.6.2 9.9.1 2.2.3 2.3 2.5 2.3 4-.1 8.2 0 12.3 0zm419.4-115.1v-2.8c-.1-1.5-.4-1.6-1.8-.9-.3.1-.5.3-.7.4-4.7 2.8-9.4 5.6-14.1 8.3-4.1 2.5-8.3 4.9-12.4 7.4-.6.3-1.2.6-1.3 1.4 0 .9.7 1.3 1.4 1.6.6.3 1.2.5 1.9.6 1.2.3 2.3.8 3.2 1.7 1.1 1.1 2.3 1.4 3.8 1.4 3.9-.1 7.7 0 11.6 0 2 0 2.3.3 2.5 2.2.1.4 0 .8.1 1.1.2 1-.2 2.6 1.1 2.6 1.6 0 1.1-1.7 1.1-2.7.3-5.3.4-10.6.3-15.9 0-1.2 0-2.3 1.7-2.3 1.3 0 1.6-.8 1.6-1.9v-2.2zM634 353.4c-1.1 0-1.4.7-1.7 1.4-1.2 3.3-2.5 6.5-3.8 9.7-.5 1.3-.3 2.2 1.1 2.7 6.2 2.4 12.5 4.8 18.7 7.2 1 .4 1.8.3 2.3-.9 1.3-3.4 2.7-6.8 3.9-10.3.5-1.2.3-2.1-1.2-2.6-6-2.2-12-4.6-17.9-6.9-.4 0-1-.1-1.4-.3zm6.7 46.1c-.1-1.1-.9-1.2-1.6-1.5-4-1.5-7.9-3-11.9-4.5-2.1-.8-4.2-1.7-6.3-2.5-1.1-.4-2.1-.4-2.6.8-1.4 3.6-2.7 7.2-4.1 10.8-.3.9 0 1.5.9 1.8.4.2.9.4 1.3.5 5.9 2.3 11.7 4.6 17.6 6.9 1.4.6 2.2.1 2.9-1.8 1.2-3.1 2.3-6.2 3.4-9.3.2-.4.3-.8.4-1.2zM753 247.6h.1v-5.7c0-1.2-.4-1.7-1.6-1.7-2.4 0-4.9 0-7.3.1-1.4 0-2.5.6-3.6 1.5-2.1 1.6-4.2 3.1-6.4 4.7-1.7 1.2-3.5 1.8-5.6 1.7-1.4-.1-2.8 0-4.2 0-.8 0-1.7.1-1.9 1-.3 1.6-.5 3.2.2 4.7.6 1.3 2.1 1.1 3.3 1.2 8.4.5 16.8.1 25.1.3 1.4 0 1.9-.5 1.9-1.8v-6zm-139.9 280h.2v19.5c0 2.7.4 3 3.2 2.8 1.8-.1 2.1-.3 2.4-2.1.1-.5 0-.9.1-1.4.7-5.7.2-11.5 1.1-17.2.8-5.7.9-11.5 1.1-17.2.1-1.9.1-3.8.2-5.7.1-1.4-.5-2.1-2-2.1h-4c-1.4 0-2.1.7-2.1 2.1 0 1.3-.1 2.6-.2 4v17.3zm11.4-42.9c1.5-.3 1.7-1.4 2-2.3 2.1-5.8 4.5-11.4 6.9-17 1.6-3.8 3.2-7.6 4.6-11.6 1.7-4.7 1.5-4.7-3.3-6.3-1.2-.4-1.8-.3-2.4 1-2.2 5-4 10.1-6.5 15-2.7 5.3-3.8 11.4-7 16.6-.5.9-.6 2 .4 2.5 1.7.9 3.6 1.4 5.3 2.1zm-62.6-73.4c-.9 0-1 .1-1.8 2-1.6 3.7-1.6 3.7 2.2 5.2 9.2 3.5 18.5 7.1 27.7 10.6 2.3.9 2.7.7 3.6-1.5.2-.5.5-1 .6-1.6.6-1.9.4-2.3-1.4-2.9-1.1-.4-2.1-.8-3.2-1.2l-26.1-9.9c-.4-.3-1.1-.5-1.6-.7zm54.8 222.5c.9-1.9.5-3.7.6-5.6.5-8.1 1-16.2 1.2-24.3.1-4 .1-4-3.8-4-1.1 0-2.3-.1-3.4-.2-1.4-.1-2.8-.1-4.2-.2-.8 0-1.4.3-1.2 1.2.6 2.1.9 4.4 3.3 5.2 1.4.4 1.7 1.2 1.8 2.5.1 3.5.3 7 .4 10.5 0 .8 0 1.7.2 2.5 1.1 4.3 3.7 8.1 5.1 12.4zm-67.2-229c.3.5.7.7 1.2.8 9.7 3.3 19.2 7.3 28.8 10.9 4.6 1.7 9.1 3.6 13.7 5.3 2.1.8 2.7.3 3.6-2.6.5-1.8.4-2-1.8-2.6-4.4-1.2-8.8-2.2-13.3-2.7-.9-.1-1.9-.2-2.6-.9-2.7-2.4-6-4-8.5-6.6-.7-.7-1.6-1-2.5-1.1-5.8-.4-11.7-.7-17.5-1.1-.4-.1-.8-.1-1.1.6zm86.8-110.9h.1c-.2-4.3-.3-8.7-.5-13 0-.7.2-1.8-.8-1.9-1.7-.3-3.4-.4-5 .4-1.2.6-.8 2-.8 3.1.2 7.5.4 15.1.6 22.6.1 4.5.2 4.7 4.6 4.4 1.8-.1 2.1-.5 2.1-2.3 0-4.5-.1-8.9-.3-13.3zm-7.6 296.3c2 1 3.4.6 4.9.5 1.9-.1 2.1.1 2 2 0 1.4 0 2.8-.1 4.2 0 1.3.6 1.9 1.9 1.9 4.5 0 9 .1 13.6.1 1.3 0 1.9-.5 1.8-1.8-.1-2.6-.1-5.3-.2-7.9-.1-1.9-.3-2.1-2.2-2-2.7.1-5.4.4-8.1.9-4.3.8-8.6 1.4-13.6 2.1zm37.4-256c-3.5-.6-3.5 1-2.9 3.5.1.6.3 1.3.5 1.9.5 1.3.3 2.6-.2 3.8-1.7 4.5-3.3 9-5 13.5-1.4 3.7-1.4 3.7 2.1 5.1 2.3 1 2.7.8 3.6-1.5 1.8-4.7 3.6-9.5 5.4-14.2.4-1.1.8-2.3.7-3.6-.2-2.3-.6-4.7-.8-7-.1-.9-.5-1.4-1.4-1.5-.7.1-1.4.1-2 0zm-18.2 199.4c.2-.7.4-.9.4-1.2-.4-2.8.3-5.4 1.4-8 .9-2.3 1.8-4.6 2.6-6.9.6-1.8.5-2.2-1.1-2.9-3.6-1.4-7.2-2.7-10.9-3.9-2-.7-2.5-.1-2.1 2.1.7 3.8 1.8 7.5 3.3 11.1 1.4 3.7 3.6 6.7 6.4 9.7zm-104.5-128c-.1-1.4-1.1-1.8-2.1-2.1-6.5-2.5-13-4.9-19.6-7.3-.7-.3-1.5-.5-2.1 0-1.4 1.2-3.1 1.8-4.7 2.4-1 .4-1 1-.1 1.6.5.3 1 .5 1.6.7l14.7 5.7c2.8 1.1 5.6 2.1 8.4 3.2.6.2 1.3.8 1.8.1 1-1.3 1.5-2.9 2.1-4.3zm69.2 16.5c-1.5 0-2.2 1.1-2.7 2.2-1.2 2.8-2.3 5.5-3.4 8.4-.6 1.7-.3 2.4 1.4 3.1 2.2.9 4.4 1.8 6.6 2.5 2.2.8 2.4.7 3.3-1.6 1.2-3 2.4-5.9 3.5-8.9.7-1.7.4-2.4-1.4-3-2.2-.8-4.4-1.5-6.6-2.5-.2-.1-.5-.1-.7-.2zm8-56.8c-1.4-.2-1.9.6-2.3 1.6-2.2 4.7-3.6 9.7-5.5 14.5-1.8 4.6-1.3 5.4 3.6 6.4 1.1.2 1.7-.1 2.1-1.2 1.1-2.9 2.3-5.8 3.5-8.7 1.1-2.7 2.1-5.4 3.1-8.2.4-1.1.9-2.3-.5-3-1.3-.5-2.7-.9-4-1.4zm33.5 227.9h.2c0 1.4.1 2.8 0 4.2-.1 1.3.5 1.7 1.6 1.7 2.7 0 5.5 0 8.2.1 1.5 0 2-.7 2.1-2 .1-3.2.3-6.4.4-9.6.1-1.4-.7-1.9-1.9-1.7-2.9.3-5.8.5-8.7.9-1.5.2-2.1 1-2 2.5.1 1.2.1 2.6.1 3.9zm-71.7-91.5h1.7c1.3 0 1.8-.7 1.9-1.9.6-5.6 2.2-11.1 1.8-16.8-.1-.8.2-1.7.3-2.5.3-2.1.7-4.3 1-6.4.1-.5-.1-1-.6-1.1-.4-.1-.8.1-1 .4-.3.5-.7.9-.9 1.4-2.3 6.4-5.2 12.6-7.2 19-.7 2.2-.5 4.3-.5 6.4 0 1 .7 1.5 1.7 1.5h1.8zm34.5-136.3c0-.8-.3-1.4-.9-1.7l-2.1-.9c-2.7-1-2.9-.9-3.9 1.7-1.8 4.8-3.7 9.7-5.5 14.5-1.4 3.7-1.3 3.9 2.4 5.3.3.1.5.2.8.3 1.4.6 2.1 0 2.5-1.3 2-5.4 4-10.8 6.1-16.1.3-.7.5-1.3.6-1.8zm20.6-43.5h-.1c-.1-2.6-.3-5.3-.4-7.9-.1-3.4 0-3.4-3.5-3.2h-.6c-2.5.1-2.7.3-2.7 2.8.1 4.9.2 9.8.5 14.7.2 4.6.6 4.8 5.2 4.2 1.1-.2 1.6-.6 1.6-1.8-.1-2.9 0-5.9 0-8.8zm31.8 0h-.6v-8.8c0-2.7-.3-3-3.1-3.2h-.6c-2.7-.1-3 .1-2.9 2.8 0 4.9.2 9.8.3 14.7.1 4.8.2 4.8 5.1 5 1.3 0 1.9-.3 1.9-1.7-.1-3-.1-5.9-.1-8.8zm-56.5 245.4v10.1c0 2 .1 4 .1 5.9 0 .5 0 1.2.7 1.4.6.2 1-.3 1.4-.7 1.7-1.7 2.6-3.7 2.6-6.3-.2-7.8-.5-15.6-.1-23.4v-1.1c-.1-1.1-.7-1.7-1.8-1.8-1.9-.2-2.7.5-2.7 2.6.1 4.7.1 9.4-.2 13.3zm4.9-64.3h.4c3.2 0 3.3-.2 3.6-3.3.3-2.9 1-5.7 1.8-8.5.4-1.5 1.9-3 .6-4.5-1.1-1.3-3-1.4-4.6-2.1-1-.4-1.8.1-2.2 1.2-1.3 4.3-3.3 8.4-3.9 12.9-.4 4.2-.3 4.4 4.3 4.3zm38.2-120.9c.1-1.2 0-1.6-.9-2.3-.7-.5-1.4-1-2.1-1.4-1.8-1-2.2-.8-3 1-2 5-3.9 10-5.7 15-1.2 3.4-1.2 3.5 2.2 4.8 2.5 1 2.7.9 3.7-1.7 1.8-4.7 3.4-9.6 5.5-14.2.2-.4.2-.8.3-1.2zm-18.4-96.3h.1c0 1.8-.1 3.6 0 5.4.1 2 .3 2.1 2.4 2.2 3.4.1 6.7-.6 10.1-1.2 2.1-.4 2.5-1 2.2-3.1-.2-1.3-1-2.2-2.2-2.8-3.8-2-8-3.4-11.2-6.5-.8-.8-1.4-.4-1.4.7-.1 1.7 0 3.5 0 5.3zm-52 221.7c.1-.3.1-.6.1-.8.2-3.5.2-3.5-3.2-3.5h-2.3c-1.1 0-2.2 0-2.7-1.4-.3-.9-1.1-.7-1.4 0-.9 2.4-2.1 4.6-2.6 7.1-.3 1.4 0 2.6 1.1 3.6.8.7 1.4 1.5 1.7 2.5.5 1.9 1.1 2.1 2.7 1.1 1.5-.9 2.9-2 4.5-2.9 1.4-.9 2.1-2 2-3.7.1-.6.1-1.3.1-2zm43.7-12.3c-.1 1.7-.1 3.4-.1 5.1 0 .9-.2 2.3 1.1 2.1 1.1-.1.5-1.4.4-2.2-.8-5-.3-9.9 1.1-14.8 1.4-5 3.6-9.7 5.4-14.6.4-1.1.7-2.1.6-3.3-.1-.9-.6-1.6-1.5-1.8-.9-.2-1.4.3-1.9.9-.2.3-.4.7-.5 1-2.1 5.3-4.2 10.7-6.4 16-.5 1.3-.6 2.4.5 3.3 1.1 1 1.2 2.3 1.2 3.6.1 1.6.1 3.1.1 4.7zm8.1-158.4c0-.7-.1-1.3-.8-1.3-1.9-.1-3.8-.1-5.6.3-.7.1-1.1.7-1.3 1.3-1.2 3.3-2.4 6.5-3.6 9.8-.4 1.1-.1 1.8 1 2.2 1.1.4 2.3.8 3.4 1.3 1.4.6 2 .1 2.5-1.3 1.3-3.6 2.7-7.2 4-10.9.1-.4.2-1 .4-1.4zM606 418.6c.5-.3.7-.6.8-.9 1.2-3.2 2.4-6.4 3.6-9.5 1.4-3.5 1.2-3.8-2.3-5-.5-.2-1.1-.3-1.6-.5-1-.2-1.7 0-2 1-1.4 3.6-2.8 7.2-4.1 10.8-.3.9-.1 1.5.9 1.7 1.7.4 3.4 1.1 4.7 2.4zm25.1-65.1c.1-.8-.2-1.3-.9-1.6-1.1-.5-2.3-.9-3.4-1.4-1.3-.6-2.1-.3-2.6 1.1-1.2 3.3-2.5 6.5-3.7 9.7-.7 2.1-.5 2.3 1.6 3.1l2.4.9c1.8.6 2 .5 2.7-1.3 1.2-3.1 2.4-6.3 3.6-9.5.1-.4.2-.7.3-1zM556.3 416c1 .1 1.5-.3 1.8-1 .3-.7.5-1.4.7-2.1.7-2.2.5-2.8-1.7-3.6l-9.3-3.3c-2.6-.9-2.8-.8-3.8 1.6-.2.3-.3.7-.5 1-.7 1.9-.5 2.5 1.4 3.2 3.4 1.3 6.9 2.5 10.3 3.8.4.2.9.3 1.1.4zm105.6-49.6c.4-1.6 0-2.3-.9-2.7-.7-.3-1.4-.6-2.1-.8-2-.6-2.5-.5-3.3 1.5-1 2.4-1.9 4.9-2.9 7.4-1.6 4.2-1.4 4.7 2.6 6.8 1.4.7 1.7.7 2.3-.8 1.1-2.8 2.2-5.6 3.2-8.4.5-1.4.9-2.5 1.1-3zm-32.6 63.5c.2-1-.2-1.6-1.1-2-.9-.3-1.7-.7-2.6-1-1.7-.5-2.1-.4-2.8 1.3-1 2.4-2 4.9-2.9 7.3-1.8 4.4-1.8 4.4 2.7 5.9 2 .7 2.4.5 3.2-1.5 1-2.6 2-5.3 3-7.9.1-.7.3-1.4.5-2.1zm-117.9-38.2c1.1 1 2.4 1.4 3.6 1.5 4.4.5 8.4 2.1 12.4 3.6 3.5 1.3 7 2.7 10.6 4 1.9.7 2.4.2 2-1.8-.1-.8-.2-1.7-.8-2-2-1.3-3.6-3.2-6.3-3.3-3.5-.1-7.1-.1-10.3-1.3-3.8-1.5-7.4-.5-11.2-.7zm100.7 10.8c.4-.6.6-.8.7-1.1 1-2.5 2-4.9 2.9-7.4 2-5.4 1.9-4-3.3-6.2-1.2-.5-2 0-2.5 1.2-1 2.5-1.9 4.9-2.9 7.4-.5 1.3-.2 2.2 1.1 2.7 1.7.6 3.2 1.3 4 3.4zm15 195.9c.8 0 1.7.1 2.5.1 4.6.2 4.7 0 4.4-4.6-.1-1.4-.6-2-2-2-2.7.1-5.4 0-8.2.1-3 .1-3.7 1-3.6 4 .1 1.9.4 2.3 2.3 2.3 1.6.2 3.1.1 4.6.1zm78.4-392.5c0-.7-.1-2.1-.2-3.4-.2-2.4-.3-2.6-2.6-2.6h-1.4c-2.1.1-2.4.3-2.4 2.5 0 2.5.1 5.1.2 7.6 0 1.5.7 2.3 2.2 2.4.8.1 1.7.1 2.5.2 1.2.1 1.7-.5 1.7-1.7v-5zm-96.9 181.8c.1-1-.2-1.5-.9-1.8-1.1-.4-2.3-.9-3.4-1.3-1.2-.4-2 0-2.4 1.2-.6 1.7-1.1 3.4-1.8 5.1-2 4.4-1.8 4.2 3 6 .2.1.4.1.5.2 1 .3 1.6 0 1.9-1 .9-2.4 1.8-4.7 2.7-7.1.2-.6.3-1.1.4-1.3zm-2 49c-1 0-1.5.2-1.8.9-.4.8-.8 1.7-1.2 2.5-.7 1.8-.5 2.3 1.2 3 2.2.9 4.4 1.7 6.6 2.5 2.7 1 3.4.4 3.8-1.9.1-.5.4-1 .6-1.6.5-1.6.3-2-1.3-2.5-2.3-.8-4.6-1.5-6.8-2.6-.4 0-.9-.2-1.1-.3zm97.2-164.6c2.7-.9 5.1-1.1 7.5-1.1.9 0 1.5-.4 1.5-1.3.1-1.9.3-3.8-.1-5.6-.4-1.6-1.5-2.8-2.9-3.6-1.1-.6-2-.4-2.6.7-.4.6-.7 1.3-.9 2.1-.8 2.6-1.5 5.4-2.5 8.8zm345.4-56.6c.1-1.9-1-2.9-2.6-3.6-1.5-.6-3.2-.7-4.4-1.8-1.5-1.4-2.7-1.4-4.2-.1-.6.5-1.5.9-2.1 1.4-1 .7-.9 1.4.3 1.8 3.7 1.3 7.4 2.6 11.2 3.9 1.3.3 1.7-.1 1.8-1.6zM627.8 495.4s-.1 0 0 0c0-2.1 0-4.1-.1-6.2 0-.6-.3-1.1-1-1.1-.6 0-.8.5-.9.9-1 3.6-2.7 7-2.6 10.9.1 2.7.1 2.8 2.8 2.7 1.4 0 1.8-.6 1.8-1.9v-5.3zm-33.2-63.1c-.4.2-.8.3-1 .5-1 1.4-1.6 3-1.9 4.6-.1.5.3.9.8 1.1 1.5.6 2.9 1.3 4.5 1.6 1.6.3 1.8-1.3 2.2-2.4.4-1.1 1.5-2.6.1-3.5-1.4-1-3.1-1.3-4.7-1.9zm.2-3.1c-.1 1.1.2 1.8 1.3 2.1 1.1.3 2.1.8 3.2 1.2 1 .3 2 .1 2.2-1.1.3-1.6 1.8-3 .7-4.7-.1-.2-.5-.3-.7-.4-.4-.2-.9-.4-1.3-.6-3.7-1.5-4.9-.9-5.3 3.2 0 .1-.1.2-.1.3zm-21.9 97.7c-4.1 0-4.2.1-3.7 4 .2 2 .4 2.3 2.4 2.3 5.4 0 4.5.7 4.8-4.8.1-1.1-.5-1.5-1.5-1.6-.7.1-1.3.1-2 .1zM601 417.6c-1.1-.2-1.8.1-2.3 1.1-1.8 3.8-2.5 4.2 2.1 5.9.6.2 1.2.5 1.9.6.6.1 1.1 0 1.4-.6 2.1-3.8.1-6.6-3.1-7zm120.1-166.2c-.2-.9.4-2-.5-2.8-.6-.5-4.8-.5-5.5 0-.3.2-.5.5-.6.9-1.1 4.4-.3 5.5 4.2 5.3h1.1c.9-.1 1.4-.6 1.3-1.5.1-.7.1-1.3 0-1.9zM593.9 577.7c.7-.6.7-.9.7-1.3l-.9-8.1c-.2-1.2-.5-2.4-1.1-3.5-.6-1-1.4-1.8-2.5-2.1-1.2-.3-1.8.2-1.4 1.5 1.3 4.5 2.9 9 5.2 13.5zm3.5 7.6c-.5.2-.4.6-.3.8 1.3 3.4 2.7 6.8 3.7 10.3.1.2.1.3.2.5.4.6 1 .9 1.7.8.9-.1.9-.8.9-1.5 0-1-.1-2.1-.1-3.1 0-2-.7-3.7-2.6-4.6-1-.5-1.5-1.4-2.2-2.2-.4-.4-.6-1.1-1.3-1zm4.8 14.4c1.2 3.1 2.4 6 3.5 8.8 1.1 2.9 1.9 5.9 3.9 8.5.2-2.8.1-5.6-.1-8.4 0-.7-.5-1.2-1.2-1.4-1.5-.3-2.1-1.4-2.5-2.7-.4-1.2-.9-2.3-1.3-3.4-.4-.7-.7-1.5-2.3-1.4zm48-62.2c-.7.9-.1 1.4.2 2 1 2.5 2 4.9 2.9 7.4 1.6 4.4 3.1 8.9 4.6 13.4.3.9.7 1.8 1.4 2.5.3.3.6.6 1 .4.5-.3.5-.8.3-1.2-.8-1.7-1.7-3.4-2.3-5.2-1.6-4.3-3.1-8.7-4.8-13-.9-2.2-1.9-4.3-3.3-6.3zm20-233.2c0 .6-.1 1.1-.1 1.7 0 .5-.1 1 .4 1.3.6.4 1.1 0 1.5-.3 3.1-2.1 3.2-5.6 1.3-7.5-.4-.4-.6-1.3-1.4-1.1-.7.2-.9.9-1.1 1.5-.5 1.4-.5 2.9-.6 4.4zm-45.3 346.9c.5-2.2.2-4.3-.1-6.4-.3-2.1-1.6-3.3-3.4-4.1-.5-.2-1.1-.6-1.5-.1-.5.5-.1 1.1.2 1.5 1.8 2.8 3.8 5.7 4.8 9.1zm82.4-433.7c-1 4.7 1.2 7.4 4.1 10.4.3-4.3-1.7-7.1-4.1-10.4zm-88.9 369.3v-1.6c0-.6.3-1.5-.5-1.8-1-.4-1.2.7-1.7 1.1-.3.2-.5.6-.7.9-1.1 1.8-.7 4 1.1 5.2 1.1.7 1.8.4 1.9-.9.2-.8 0-1.7-.1-2.9zM708 256.1c.2-.1.5-.3.8-.5 1.8-1.3 3-3 3.4-5.3.1-.6.9-1.2.2-1.8-.7-.5-1.5.1-1.9.6-1.5 1.5-2.4 3.3-3.3 5.2-.2.3-.1.7-.1 1.1 0 .5.2.8.9.7zM584 533.4c-1.1-2.2-2.9-3.4-4.5-4.7-.5-.4-1.1-.2-1.3.5-.9 2.6.1 4.1 2.7 4.2.9 0 1.7.6 3.1 0zm-78.4-137.3c4 2.5 7.2 3.2 9.1 0h-9.1zm5.8-2c-3-.8-5.9-1.6-8.9-2.4-.2-.1-.5.1-.8.2 1.3 2.2 6.4 3.5 9.7 2.2zm61.9 131.5c0-.1 0-.1 0 0 .6-.1 1.1 0 1.7-.1.4 0 .8-.1 1-.4.5-.9.1-1.6-.4-2.3-.5-.7-1.1-1-1.9-.6-.8.5-1.5 1.1-2 1.9-.6 1-.1 1.4.9 1.4.1.1.4.1.7.1zm27.2-84c.1 0 .2 0 .3-.1 1-.4 3-4.7 2.5-5.6-.3-.6-1-.8-1.4-.3-1.1 1.5-1.8 3.3-2 5.1 0 .4.2.8.6.9zm3.3-7.6c.2-.1.5-.1.7-.3 1.1-1.5 1.5-3.1 1.8-4.9.1-.4-.4-.7-.7-.7-.4 0-.8.1-1 .5-.6 1.5-1.3 2.9-1.8 4.4-.3.5.2.9 1 1zm-12.6 30.7c-.2-.1-.4-.1-.7-.2-.6 1.8-1.2 3.5-1.7 5.3-.2.5-.3 1.2.4 1.4.6.2 1.1-.4 1.3-.9.8-1.8 1-3.7.7-5.6zM710.8 220c1-1.6.5-2.9-.1-4.2-.3-.6-.8-1-1.5-1.2-.4-.1-.7-.2-1 .2-.3.3-.3.7-.1 1l2.7 4.2zM606.5 426.6c.2-.1.5-.1.6-.3.9-1.3 1.5-2.8 1.9-4.3.2-.6-.6-1-1.2-.6-1.4 1.1-1.9 2.7-2.2 4.4.1.4.3.8.9.8zm23.8 77.9c-.6.1-.8.4-.9 1-.1 1 .2 1.9.8 2.6.5.5 1 1.4 1.8.8.7-.4.2-1.2 0-1.8-.2-.7-.5-1.4-.8-2.1-.1-.3-.5-.4-.9-.5zm-26.4-105.1c0-.2 0-.5-.1-.5-1.6-.9-3.2-1.8-5.1-2-.3 0-.6.2-.5.5 0 .2.2.6.3.7 1.5.6 2.9 1.2 4.4 1.7.4.1.8-.1 1-.4zm71.4-90.9c1 0 2-.1 2-1.4 0-.9-.2-1.8-1.3-1.9-.6-.1-2.1 1.9-2 2.5.1.8.7.7 1.3.8zm-275.8 53.1c1-.5 1.2-1.3 1.6-2.1.2-.5.1-.9-.4-1.2-.6-.3-1.1 0-1.4.5-.5.9-.5 1.8.2 2.8zM599 445.7c.9-.1 1.7-1.2 1.4-2-.1-.4-.4-.6-.8-.6-.9.1-1.7 1.3-1.4 2.1.1.4.4.5.8.5zm-24.1 71.9c.5-1 .1-1.8-.2-2.6-.1-.3-.3-.7-.8-.6-.4.1-.5.5-.4.9.2.7.3 1.6 1.4 2.3zm34.5-116.3c-.9-.8-1.8-1.2-2.9-1-.1 0-.3.3-.3.4.5 1.2 1.6 1 2.6 1 .2.1.2 0 .6-.4zm234 192.1c.9 1.1 1.5 2.2 3.3 2.1-.8-1.3-1.5-2.3-3.3-2.1zm-207.9-84.8c0-.7-.4-1.4-1.1-1.7-.4-.2-.7.2-.7.6 0 .8.4 1.5 1.2 1.7.3 0 .5-.2.6-.6zM359.6 335.8c0-.3-.2-.5-.5-.4-.1 0-.3.3-.3.4 0 .1.1.4.3.4.3.1.5-.1.5-.4zm313.3-39.4c.1.3.3.5.6.4.1 0 .2-.3.3-.4 0-.3-.1-.6-.4-.5-.4-.1-.5.2-.5.5z"/>
  <path class="st0" d="M455.6 249.5c-.8-2.4-.5-4.3-.4-6.1 0-.8.6-1.1 1.3-1.2.7-.1 1.5-.1 2.3-.2 10.4-.5 20.7-.5 31.1-.7 11-.2 22.1-.7 33.1-1 1.6 0 3.3-.2 5.3.3-.8 1.3-1.8 1-2.7 1.1-4.5.2-9.1.2-13.6.4-14.7.7-29.4.3-44.1 1.1-3 .2-6 .4-9 .4-2.1 0-2.3.3-2.4 2.6-.1.8.3 1.9-.9 3.3z"/>
</svg>
